<?xml version="1.0" encoding="UTF-8" standalone="no"?>
<!-- Generator: visioncortex VTracer 0.6.12 -->

<svg
   version="1.1"
   width="800"
   height="800"
   viewBox="0 0 800 800"
   id="svg204"
   sodipodi:docname="logo.svg"
   inkscape:version="1.4.4 (dcaf3e7d9e, 2026-05-05)"
   xmlns:inkscape="http://www.inkscape.org/namespaces/inkscape"
   xmlns:sodipodi="http://sodipodi.sourceforge.net/DTD/sodipodi-0.dtd"
   xmlns="http://www.w3.org/2000/svg"
   xmlns:svg="http://www.w3.org/2000/svg">
  <defs
     id="defs204" />
  <sodipodi:namedview
     id="namedview204"
     pagecolor="#505050"
     bordercolor="#eeeeee"
     borderopacity="1"
     inkscape:showpageshadow="0"
     inkscape:pageopacity="0"
     inkscape:pagecheckerboard="0"
     inkscape:deskcolor="#505050"
     inkscape:zoom="0.70255183"
     inkscape:cx="400"
     inkscape:cy="400"
     inkscape:window-width="1920"
     inkscape:window-height="1131"
     inkscape:window-x="0"
     inkscape:window-y="0"
     inkscape:window-maximized="1"
     inkscape:current-layer="svg204" />
  <rect
     id="squircle-bg"
     x="0"
     y="0"
     width="800"
     height="800"
     rx="160"
     ry="160"
     fill="#1E1B2E" />
  <g
     id="g204"
     transform="translate(-220.92134,-234.30165)">
    <path
       d="m 0,0 c 8.159,5.741 15.9,13.293 18.848,23.117 -0.455,2.152 -0.455,2.152 -1,4 -2.253,0.322 -4.505,0.644 -6.758,0.965 -1.92,0.275 -3.84,0.552 -5.76,0.83 -4.257,0.616 -8.509,1.225 -12.783,1.709 -9.25,1.103 -14.444,3.378 -20.379,10.633 -5.975,8.432 -6.096,18.172 -4.758,28.051 2.504,12.414 9.813,24.729 20.438,31.812 0,0.66 0,1.32 0,2 0.639,0.103 1.278,0.206 1.937,0.313 4.129,0.927 8.066,2.31 12.063,3.687 11.799,3.933 27.425,0.537 39.49,-1.026 2.732,-0.353 5.465,-0.688 8.199,-1.021 1.764,-0.22 3.528,-0.441 5.291,-0.664 0.804,-0.099 1.609,-0.198 2.437,-0.3 4.69,-0.615 9.033,-1.657 13.583,-2.989 1.684,-0.233 3.377,-0.413 5.074,-0.527 0.908,-0.068 1.816,-0.137 2.752,-0.207 0.944,-0.067 1.888,-0.134 2.861,-0.203 6.908,-0.552 13.31,-1.357 19.978,-3.305 4.128,-0.938 8.201,-1.3 12.413,-1.664 9.713,-0.907 19.331,-2.217 28.971,-3.698 2.609,-0.401 5.219,-0.793 7.83,-1.185 7.425,-1.122 14.81,-2.285 22.161,-3.835 2.829,-0.542 5.65,-0.762 8.522,-0.938 5.333,-0.333 5.333,-0.333 6.438,-1.438 1.609,-0.288 3.229,-0.518 4.851,-0.724 1.036,-0.134 2.071,-0.267 3.137,-0.405 0.565,-0.071 0.565,-0.071 3.422,-0.429 1.156,-0.15 2.312,-0.299 3.503,-0.453 4.964,-0.64 9.929,-1.271 14.894,-1.902 3.618,-0.461 7.235,-0.928 10.853,-1.395 1.115,-0.14 2.23,-0.28 3.378,-0.424 5.8,-0.75 11.307,-1.793 16.962,-3.268 2.152,-0.328 4.312,-0.614 6.476,-0.851 1.166,-0.129 2.331,-0.258 3.531,-0.391 1.194,-0.126 2.388,-0.253 3.618,-0.383 0.6,-0.067 0.6,-0.067 3.64,-0.406 5.279,-0.574 10.42,-1.043 15.735,-0.969 0.019,0.563 0.039,1.126 0.06,1.706 0.562,15.235 1.886,29.786 5.51,44.63 0.183,0.776 0.366,1.552 0.555,2.352 0.167,0.684 0.335,1.369 0.507,2.074 0.692,4.213 0.937,7.157 -1.093,11.012 -0.632,0.858 -1.264,1.717 -1.914,2.601 -0.627,0.874 -1.253,1.748 -1.899,2.649 -0.57,0.652 -1.139,1.304 -1.726,1.976 -0.66,0 -1.32,0 -2,0 0.535,2.758 0.535,2.758 2,6 2.51,1.53 4.774,2.708 7.437,3.875 8.417,4.104 8.417,4.104 9.875,7.938 0.426,1.988 0.426,1.988 0.688,4.187 0.33,1.834 0.663,3.667 1,5.5 0.153,0.937 0.306,1.874 0.464,2.84 0.487,2.418 1.15,4.456 2.098,6.723 4.526,11.654 0.9,21.658 -3.73,32.73 -0.832,2.207 -0.832,2.207 -0.832,5.207 0.272,0.121 0.272,0.121 1.652,0.735 1.593,0.707 3.18,1.429 4.762,2.16 2.586,1.105 2.586,1.105 5.047,1.804 2.613,0.821 4.397,1.578 6.539,3.301 2.088,4.165 3.033,8.46 4,13 0.261,1.119 0.523,2.238 0.793,3.391 0.485,2.078 0.953,4.159 1.398,6.246 0.65,2.705 1.391,5.313 2.211,7.969 1.81,5.944 3.217,11.962 4.598,18.019 0.261,1.136 0.522,2.271 0.791,3.441 1.758,7.72 3.326,15.448 4.666,23.251 0.543,2.683 0.543,2.683 1.543,3.683 0.625,3.063 0.625,3.063 0,7 -2.673,3.093 -5.644,5.668 -9,8 -0.66,0 -1.32,0 -2,0 0.33,1.65 0.66,3.3 1,5 0.915,0.266 1.83,0.531 2.773,0.805 0.594,0.176 0.594,0.176 3.602,1.07 1.183,0.348 2.366,0.696 3.586,1.055 3.039,1.07 3.039,1.07 5.039,3.07 1.023,4.716 1.525,9.527 2.125,14.313 0.089,0.695 0.179,1.39 0.272,2.106 1.52,11.9 2.084,23.582 1.603,35.581 -3.855,2.298 -6.613,3.903 -11,5 3.63,1.32 7.26,2.64 11,4 0.651,15.438 -2.484,29.327 -7,44 -0.66,0 -1.32,0 -2,0 -0.042,0.784 -0.083,1.568 -0.125,2.375 -2.413,9.998 -9.946,19.338 -18.5,24.875 -10.066,5.491 -20.988,7.43 -32.25,8.813 -0.625,0.081 -0.625,0.081 -3.786,0.491 -2.547,0.33 -5.095,0.655 -7.644,0.976 -3.485,0.443 -6.965,0.91 -10.445,1.388 -2.042,0.278 -4.084,0.555 -6.125,0.832 -0.926,0.128 -1.851,0.256 -2.805,0.387 -4.823,0.638 -9.455,0.996 -14.32,0.863 0,-1.32 0,-2.64 0,-4 0.66,0 1.32,0 2,0 0,-1.65 0,-3.3 0,-5 -0.66,0 -1.32,0 -2,0 -0.114,0.402 -0.114,0.402 -0.688,2.438 -1.312,2.562 -1.312,2.562 -3.5,3.375 -2.812,0.187 -2.812,0.187 -6.187,-0.063 -4.755,0.328 -7.213,2.033 -10.625,5.25 -4.351,5.701 -5.24,12.277 -5.274,19.289 -0.02,1.367 -0.041,2.735 -0.062,4.102 -0.023,2.124 -0.039,4.248 -0.045,6.372 -0.01,2.072 -0.044,4.142 -0.08,6.214 -0.008,1.228 -0.017,2.456 -0.025,3.721 -0.606,3.889 -1.76,5.541 -4.514,8.302 -2.438,1 -2.438,1 -5,1 -2.284,-1.141 -4.19,-2.19 -6,-4 -0.123,-2.498 -0.186,-4.973 -0.211,-7.472 -0.028,-1.556 -0.057,-3.111 -0.086,-4.666 -0.041,-2.454 -0.078,-4.906 -0.105,-7.36 -0.028,-2.367 -0.073,-4.733 -0.122,-7.099 -0.001,-0.361 -0.001,-0.361 -0.01,-2.186 -0.152,-6.415 -1.348,-12.149 -6.091,-16.779 -4.452,-1.896 -7.775,-1.915 -12.375,-0.438 -3.322,2.615 -5.406,5.112 -7,9 -0.259,2.498 -0.259,2.498 -0.272,5.332 -0.01,1.065 -0.02,2.129 -0.03,3.226 -0.003,1.145 -0.005,2.29 -0.007,3.47 -0.025,2.425 -0.05,4.85 -0.076,7.275 -0.029,3.823 -0.053,7.646 -0.072,11.468 -0.021,3.69 -0.061,7.379 -0.102,11.069 0,1.143 0,2.286 0,3.463 -0.014,1.068 -0.027,2.136 -0.041,3.236 -0.005,0.936 -0.01,1.872 -0.015,2.837 -0.466,3.177 -1.503,5.039 -3.385,7.624 -3.271,2.181 -4.206,2.633 -8,2 -3.643,-2.786 -4.881,-4.251 -5.612,-8.837 -0.021,-1.488 -0.016,-2.976 0.01,-4.464 -0.008,-0.795 -0.016,-1.59 -0.024,-2.409 -0.023,-2.535 -0.014,-5.068 0.001,-7.602 0.004,-2.524 0,-5.047 -0.021,-7.57 -0.012,-1.566 -0.01,-3.132 0.01,-4.698 -0.03,-5.978 -0.977,-11.838 -5.185,-16.389 -4.48,-2.119 -9.368,-1.751 -14.179,-1.031 -2.553,1.403 -3.964,2.857 -6,5 -0.66,0 -1.32,0 -2,0 0.058,0.832 0.116,1.663 0.175,2.52 0.046,1.086 0.091,2.173 0.137,3.293 0.058,1.079 0.116,2.158 0.176,3.269 -0.488,2.918 -0.488,2.918 -2.844,4.785 -2.86,1.226 -4.572,1.538 -7.644,1.133 -3.369,-2.245 -3.461,-2.74 -4.438,-6.437 -0.899,-2.917 -1.349,-4.343 -3.5,-6.563 -13.376,-6.485 -33.787,-0.262 -47.76,2.121 -7.463,1.269 -14.895,2.427 -22.427,3.192 -0.373,0.038 -0.373,0.038 -2.257,0.23 -3.55,0.336 -7.053,0.533 -10.618,0.457 0.845,-0.928 1.691,-1.856 2.562,-2.812 10.904,-12.798 18.136,-27.566 20.438,-44.188 0.181,-1.266 0.363,-2.532 0.55,-3.836 0.808,-7.623 0.736,-15.318 0.762,-22.976 0.004,-0.824 0.008,-1.648 0.012,-2.496 0.025,-11.312 -0.566,-21.935 -3.449,-32.934 -0.9,-3.863 -1.383,-6.819 -0.875,-10.758 2.117,-2.871 2.117,-2.871 4.875,-5.437 0.905,-0.865 1.81,-1.73 2.742,-2.621 2.383,-1.942 2.383,-1.942 4.383,-1.942 -0.165,-0.495 -0.165,-0.495 -1,-3 -3.158,-1.155 -6.294,-2.073 -9.541,-2.929 -5.127,-1.509 -5.127,-1.509 -6.85,-4.418 -0.201,-0.876 -0.402,-1.751 -0.609,-2.653 -0.223,-0.795 -0.446,-1.591 -0.676,-2.41 -0.21,-0.875 -0.42,-1.751 -0.637,-2.652 -0.127,-0.522 -0.127,-0.522 -0.773,-3.16 -0.492,-2.031 -0.983,-4.063 -1.474,-6.094 -2.147,-8.852 -4.292,-17.597 -7.331,-26.192 -1.97,-6.202 -3.504,-12.528 -5.092,-18.837 -0.246,-0.973 -0.493,-1.945 -0.748,-2.948 -0.11,-0.441 -0.11,-0.441 -0.669,-2.672 -0.6,-2.035 -0.6,-2.035 -1.6,-3.035 -0.124,-1.01 -0.248,-2.021 -0.375,-3.062 -0.543,-3.417 -1.455,-6.136 -2.689,-9.334 -1.885,-5.24 -3.393,-10.606 -4.98,-15.942 -3.605,-12.107 -7.341,-24.15 -11.443,-36.099 -5.474,-16.028 -5.474,-16.028 -3.513,-20.563 1.882,-1.986 3.745,-3.389 6,-5 0.66,0 1.32,0 2,0 0,-0.66 0,-1.32 0,-2 -0.592,0.023 -1.184,0.047 -1.793,0.071 -0.791,0.018 -1.581,0.036 -2.395,0.054 -0.777,0.023 -1.554,0.047 -2.355,0.07 -2.988,-0.237 -4.866,-0.655 -7.457,-2.195 -1.328,-2.898 -1.328,-2.898 -2.25,-6.375 -0.315,-1.142 -0.629,-2.284 -0.953,-3.461 -0.602,-2.387 -1.201,-4.775 -1.797,-7.164 2.622,-2.149 5.248,-4.293 7.875,-6.437 0.373,-0.306 0.373,-0.306 2.261,-1.854 0.716,-0.583 1.431,-1.166 2.168,-1.767 0.66,-0.54 1.32,-1.079 2,-1.635 1.696,-1.307 1.696,-1.307 3.696,-2.307 -0.33,-1.32 -0.66,-2.64 -1,-4 -1.195,-0.193 -2.39,-0.387 -3.621,-0.586 -3.27,-0.529 -6.532,-1.09 -9.793,-1.664 -2.571,-0.445 -5.001,-0.776 -7.61,-0.937 -2.526,-0.207 -3.888,-0.36 -5.976,-1.813 -2.656,-4.555 -5.39,-9.905 -4.711,-15.293 0.711,-1.707 0.711,-1.707 2.211,-3.644 1.717,-2.361 2.102,-4.2 2.5,-7.063 -1.98,-0.33 -3.96,-0.66 -6,-1 0,-0.66 0,-1.32 0,-2 -0.926,-0.045 -1.851,-0.09 -2.805,-0.137 -3.195,-0.863 -3.195,-0.863 -4.891,-3.257 -0.471,-1.128 -0.943,-2.256 -1.429,-3.418 -0.274,-0.638 -0.548,-1.275 -0.83,-1.931 -0.644,-1.507 -1.278,-3.018 -1.904,-4.532 -1.333,-3.182 -2.722,-6.337 -4.114,-9.494 -0.805,-1.839 -1.609,-3.678 -2.412,-5.518 -0.782,-1.791 -1.567,-3.582 -2.352,-5.372 -7.319,-17.021 -11.503,-33.392 -11.576,-51.903 -0.005,-1.024 -0.011,-2.047 -0.016,-3.101 0.052,-5.471 0.501,-10.123 2.329,-15.337 0.166,-0.518 0.166,-0.518 1.007,-3.14 4.552,-12.669 10.69,-21.829 22.993,-27.86 C -22.177,-7.884 -11.158,-6.664 0,0 Z"
       fill="#e5e3ec"
       transform="translate(478.15234,366.88281)"
       id="path2" />
    <path
       d="m 0,0 c 0.605,0.535 1.209,1.07 1.832,1.621 0.594,0.525 1.189,1.049 1.801,1.59 10.677,10.062 19.909,25.248 20.5,40.16 0.019,1.75 0.023,3.5 0.012,5.25 -0.005,0.923 -0.01,1.847 -0.015,2.798 -0.254,14.983 -3.352,27.8 -13.161,39.413 -5.805,4.86 -12.078,6.475 -19.449,7.414 -1.58,0.22 -3.16,0.441 -4.739,0.664 -0.809,0.111 -1.618,0.222 -2.452,0.337 -2.546,0.381 -5.063,0.851 -7.591,1.339 -8.008,1.487 -16.114,2.301 -24.204,3.21 -8.461,0.956 -16.797,2.146 -25.154,3.784 -5.152,1 -10.26,1.666 -15.485,2.104 -5.415,0.464 -10.559,1.217 -15.851,2.462 -3.522,0.756 -7.069,1.114 -10.649,1.475 -4.507,0.457 -8.913,1.037 -13.348,1.969 -6.71,1.393 -13.491,2.101 -20.293,2.887 -5.595,0.667 -11.079,1.511 -16.593,2.667 -3.613,0.74 -7.245,1.307 -10.891,1.852 -0.81,0.122 -1.62,0.245 -2.455,0.371 -5.851,0.858 -11.713,1.599 -17.585,2.301 -0.373,0.045 -0.373,0.045 -2.263,0.271 -3.775,0.449 -7.55,0.891 -11.327,1.324 -1.398,0.164 -2.796,0.327 -4.195,0.491 -0.625,0.072 -0.625,0.072 -3.788,0.434 -2.825,0.433 -2.825,0.433 -3.825,1.433 -1.727,0.329 -3.466,0.6 -5.207,0.848 -1.111,0.16 -2.222,0.32 -3.367,0.485 -1.211,0.17 -2.421,0.34 -3.668,0.515 -1.235,0.176 -2.469,0.352 -3.741,0.534 -2.617,0.372 -5.235,0.743 -7.853,1.112 -3.356,0.472 -6.711,0.949 -10.065,1.429 -3.197,0.456 -6.394,0.909 -9.591,1.362 -1.206,0.172 -2.413,0.344 -3.656,0.521 -1.117,0.157 -2.235,0.314 -3.387,0.476 -0.492,0.069 -0.492,0.069 -2.985,0.421 -2.48,0.297 -2.48,0.297 -5.48,0.297 1.186,-2.39 2.396,-4.766 3.621,-7.137 8.872,-17.342 12.834,-35.613 7.379,-54.863 -0.171,-0.755 -0.343,-1.511 -0.52,-2.289 -4.268,-16.909 -14.977,-31.215 -29.679,-40.406 -0.594,-0.431 -1.189,-0.861 -1.801,-1.305 0,-0.66 0,-1.32 0,-2 17.863,-3.124 35.775,-5.681 53.75,-8.062 5.078,-0.677 10.157,-1.355 15.234,-2.036 0.609,-0.081 0.609,-0.081 3.688,-0.493 9.442,-1.272 18.862,-2.658 28.279,-4.098 5.344,-0.811 10.697,-1.558 16.049,-2.311 1.76,-0.248 3.521,-0.497 5.281,-0.745 5.163,-0.728 10.326,-1.453 15.49,-2.177 2.124,-0.298 4.248,-0.596 6.373,-0.895 11.243,-1.582 22.489,-3.141 33.746,-4.623 16.334,-2.152 32.63,-4.512 48.923,-6.948 4.723,-0.707 9.446,-1.412 14.17,-2.114 2.489,-0.37 4.978,-0.742 7.466,-1.115 C -14.335,-11.707 -14.335,-11.707 0,0 Z"
       fill="#e5e3ec"
       transform="translate(787.16797,323.37891)"
       id="path3" />
    <path
       d="m 0,0 c 0.967,-0.006 1.934,-0.011 2.93,-0.017 6.02,0.061 11.44,0.831 17.258,2.329 0.553,0.113 0.553,0.113 3.351,0.684 24.246,5.584 45.572,19.664 63.649,36.316 0.618,0.568 1.236,1.136 1.873,1.72 1.853,1.72 3.681,3.463 5.501,5.218 0.567,0.531 1.133,1.063 1.716,1.611 2.296,2.272 3.788,3.895 4.484,7.092 -0.733,3.009 -1.846,4.107 -4.137,6.172 -2.763,2.584 -5.33,5.155 -7.75,8.063 -19.578,22.57 -49.694,40.823 -79.687,44.124 -15.482,0.833 -28.885,-0.418 -43.188,-6.769 -2.478,-1.084 -4.947,-1.972 -7.5,-2.855 -12.251,-4.881 -23.494,-13.763 -33.312,-22.376 -0.425,-0.364 -0.425,-0.364 -2.575,-2.207 -5.955,-5.207 -11.248,-10.819 -16.425,-16.793 -0.552,-0.59 -1.104,-1.18 -1.672,-1.789 -1.905,-2.086 -3.218,-3.693 -3.813,-6.488 0.728,-4.09 3.384,-6.233 6.297,-8.973 0.592,-0.571 1.183,-1.142 1.793,-1.731 C -66.566,19.814 -34.866,0.194 0,0 Z"
       fill="#171423"
       transform="translate(645.8125,573.6875)"
       id="path4" />
    <path
       d="m 0,0 c 5.189,-0.465 8.22,1.186 12.176,4.465 5.887,5.975 8.057,11.943 7.996,20.203 -0.238,3.749 -1.102,7.056 -2.168,10.652 -4.62,0 -9.24,0 -14,0 0.887,1.588 1.774,3.177 2.687,4.813 0.499,0.893 0.998,1.786 1.512,2.707 2.03,2.795 3.686,4.023 6.801,5.48 3.273,0.512 6.618,0.388 9.824,-0.511 3,-0.674 5.857,-0.582 8.926,-0.551 0.585,0.004 0.585,0.004 3.547,0.027 0.892,0.012 1.784,0.023 2.703,0.035 1.107,12.18 -5.843,26.373 -13.137,35.746 -6.219,6.61 -13.485,10.699 -22.597,11.493 -6.875,0.169 -11.535,-0.402 -17.266,-4.239 -0.678,-0.412 -1.356,-0.825 -2.055,-1.25 -7.69,-5.107 -11.874,-13.22 -14.945,-21.75 0,-1.32 0,-2.64 0,-4 -0.66,0 -1.32,0 -2,0 -2.798,-17.491 -1.66,-35.251 9,-50 0.598,-0.907 1.196,-1.815 1.812,-2.75 C -14.999,4.209 -8.622,1.384 0,0 Z"
       fill="#e5e2ec"
       transform="translate(471.99609,774.67969)"
       id="path5" />
    <path
       d="M 0,0 C 10.541,5.86 20.312,14.17 24.082,26.094 25.89,36.461 24.701,46.295 19.793,55.566 15.945,60.246 11.685,65.312 5.48,66.379 5.902,65.571 6.324,64.762 6.758,63.93 7.032,63.395 7.032,63.395 8.418,60.691 8.963,59.636 9.509,58.58 10.07,57.492 13.759,49.349 13.415,40.205 10.574,31.828 7.352,24.612 2.273,19.259 -4.648,15.477 c -8.036,-3.073 -16.78,-2.98 -24.825,-0.036 -6.009,2.753 -9.086,7.213 -12.047,12.938 -0.812,2.5 -0.812,2.5 -1,5 -0.051,0.629 -0.051,0.629 -0.312,3.812 0.103,5.485 2.086,9.806 5.82,13.801 3.888,3.21 7.33,4.103 12.34,3.82 3.355,-0.675 5.578,-2.245 8.152,-4.433 1.4,-2.799 1.253,-4.905 1,-8 -1,-1.813 -1,-1.813 -3,-3 -3.663,-0.779 -7.261,-1 -11,-1 -0.375,-2.688 -0.375,-2.688 0,-6 3.15,-3.634 5.634,-5.241 10.375,-6.063 4.997,-0.295 8.594,1.184 12.625,4.063 4.53,4.41 5.69,9.21 6.375,15.375 -0.758,7.328 -4.147,13.516 -9.375,18.625 -8.432,5.159 -17.277,6.312 -27,5 -7.098,-2.479 -12.956,-7.708 -17,-14 -5.38,-11.827 -6.348,-21.65 -2,-34 5.638,-11.349 13.483,-18.05 25,-23 C -21.53,-4.618 -8.574,-3.815 0,0 Z"
       fill="#e4e1eb"
       transform="translate(657.51953,597.62109)"
       id="path6" />
    <path
       d="m 0,0 c 3.422,6.844 1.2,17.874 -1,25 -0.195,0.674 -0.389,1.348 -0.59,2.043 -2.205,6.746 -5.909,12.787 -12.16,16.395 -1.072,0.515 -2.145,1.031 -3.25,1.562 -0.33,0.165 -0.33,0.165 -2,1 -5.987,0.599 -10.173,-0.549 -15,-4 C -40.859,35.582 -43.411,26.219 -44.438,17.125 -43.717,11.978 -42.107,7.343 -38,4 c 1.878,-0.492 1.878,-0.492 3.992,-0.66 0.782,-0.071 1.563,-0.141 2.369,-0.214 0.414,-0.031 0.414,-0.031 2.514,-0.188 1.72,-0.153 3.44,-0.308 5.16,-0.465 0.845,-0.076 1.689,-0.152 2.559,-0.23 4.247,-0.429 8.441,-1.146 12.644,-1.876 C -5.812,-0.025 -2.973,-0.061 0,0 Z"
       fill="#e4e2ec"
       transform="translate(504,410)"
       id="path7" />
    <path
       d="m 0,0 c -3.16,2.107 -5.045,2.551 -8.734,3.219 -1.132,0.21 -2.264,0.42 -3.43,0.636 -1.183,0.213 -2.367,0.426 -3.586,0.645 -12.46,2.269 -12.46,2.269 -16.793,3.535 -5.261,1.468 -10.618,2.136 -16.019,2.903 -0.593,0.085 -0.593,0.085 -3.591,0.52 -10.214,1.473 -20.436,2.883 -30.665,4.243 -1.979,0.271 -3.954,0.571 -5.928,0.873 -3.062,0.401 -5.981,0.56 -9.066,0.551 -0.935,0.003 -1.87,0.005 -2.833,0.008 C -103,17 -103,17 -105,16 c 0.188,-1.812 0.188,-1.812 1,-4 3.701,-2.695 6.805,-3.517 11.312,-4.062 0.615,-0.078 0.615,-0.078 3.727,-0.472 C -87.654,7.312 -86.347,7.159 -85,7 c 1.361,-0.169 2.723,-0.338 4.084,-0.509 2.048,-0.258 4.097,-0.514 6.146,-0.766 4.781,-0.59 9.547,-1.256 14.312,-1.972 C -40.221,0.717 -20.472,-0.303 0,0 Z"
       fill="#191626"
       transform="translate(692,495)"
       id="path8" />
    <path
       d="m 0,0 c 0,0.66 0,1.32 0,2 -1.076,0.182 -2.153,0.364 -3.262,0.551 -1.475,0.253 -2.95,0.507 -4.426,0.761 -0.701,0.118 -1.403,0.236 -2.126,0.358 -4.49,0.778 -8.91,1.722 -13.342,2.779 -7.171,1.679 -14.384,2.902 -21.656,4.051 -0.665,0.106 -1.329,0.213 -2.013,0.322 -10.262,1.643 -20.541,3.075 -30.864,4.278 -0.911,0.106 -1.822,0.212 -2.76,0.322 -0.787,0.088 -1.575,0.177 -2.386,0.268 -2.108,0.302 -4.104,0.78 -6.165,1.31 -2.727,0.221 -5.247,0.133 -8,0 -0.66,-0.66 -1.32,-1.32 -2,-2 0,-2 0,-2 1,-4 5.518,-2.356 11.486,-3.028 17.375,-3.938 1.113,-0.172 2.226,-0.345 3.372,-0.522 C -73.836,6.017 -70.419,5.507 -67,5 c 0.479,-0.073 0.479,-0.073 2.901,-0.443 16.975,-2.553 34.013,-3.423 51.142,-4.225 0.729,-0.034 1.458,-0.068 2.21,-0.104 C -7.162,0.069 -3.589,-0.037 0,0 Z"
       fill="#1a1728"
       transform="translate(720,753)"
       id="path9" />
    <path
       d="m 0,0 c 1.112,0.003 2.224,0.006 3.369,0.01 1.151,0.008 2.301,0.017 3.486,0.025 1.17,0.005 2.34,0.009 3.545,0.014 2.881,0.012 5.762,0.028 8.643,0.049 0,0.99 0,1.98 0,3 -3.546,2.364 -6.898,3.038 -11,3.875 -0.82,0.17 -1.64,0.34 -2.485,0.515 -10.769,2.156 -21.644,3.668 -32.518,5.187 -2.535,0.358 -5.067,0.732 -7.599,1.118 -16.078,2.363 -16.078,2.363 -23.398,1.305 -0.66,-0.99 -1.32,-1.98 -2,-3 3.842,-3.541 6.671,-4.655 11.812,-5.414 0.651,-0.101 1.301,-0.202 1.971,-0.305 2.07,-0.317 4.143,-0.612 6.217,-0.906 1.361,-0.205 2.722,-0.41 4.082,-0.618 2.679,-0.405 5.358,-0.802 8.039,-1.192 3.691,-0.538 7.379,-1.089 11.066,-1.651 1.005,-0.153 2.009,-0.305 3.043,-0.463 1.762,-0.287 3.518,-0.617 5.261,-1.002 C -5.597,0.033 -2.914,-0.015 0,0 Z"
       fill="#1a1728"
       transform="translate(667.95703,717.90234)"
       id="path10" />
    <path
       d="M 0,0 C 1.191,0.009 2.382,0.018 3.609,0.027 4.045,0.033 4.045,0.033 6.25,0.062 6,1.938 6,1.938 5.25,4.062 2.607,5.656 0.17,6.41 -2.857,6.916 -3.655,7.053 -4.453,7.19 -5.275,7.331 c -0.427,0.07 -0.427,0.07 -2.588,0.423 -0.888,0.15 -1.776,0.3 -2.691,0.455 -2.835,0.478 -5.672,0.947 -8.508,1.416 -1.898,0.319 -3.796,0.639 -5.694,0.959 -21.497,3.612 -21.497,3.612 -27.053,3.576 -0.879,-0.003 -1.759,-0.006 -2.666,-0.01 -0.895,-0.008 -1.79,-0.016 -2.713,-0.025 -0.922,-0.005 -1.844,-0.009 -2.794,-0.014 -2.256,-0.011 -4.512,-0.028 -6.768,-0.049 0,-1.32 0,-2.639 0,-4 9.222,-3.207 18.207,-5.058 27.848,-6.383 2.217,-0.304 4.432,-0.624 6.646,-0.947 C -21.535,1.193 -10.847,-0.108 0,0 Z"
       fill="#191727"
       transform="translate(649.75,535.9375)"
       id="path11" />
    <path
       d="m 0,0 c 5.826,4.064 9.636,9.212 11.879,15.941 0.068,1.728 0.085,3.459 0.062,5.188 -0.009,0.901 -0.018,1.802 -0.027,2.73 -0.012,0.687 -0.023,1.375 -0.035,2.082 -2.036,-0.496 -4.017,-1.005 -6,-1.687 -2,-0.313 -2,-0.313 -3.938,0.687 -2.062,1 -2.062,1 -4.562,1 -3.594,-1.437 -4.645,-3.687 -6.5,-7 -0.33,-0.99 -0.66,-1.98 -1,-3 -1.98,0.33 -3.96,0.66 -6,1 0.33,-1.32 0.66,-2.64 1,-4 -1.65,0.33 -3.3,0.66 -5,1 1.562,-2.062 1.562,-2.062 4,-4 3.75,0.25 3.75,0.25 7,1 -0.495,-0.907 -0.99,-1.815 -1.5,-2.75 -1.5,-3.25 -1.5,-3.25 -1.5,-7.25 -0.66,-0.33 -1.32,-0.66 -2,-1 C -9.403,-1.631 -4.518,-2.255 0,0 Z"
       fill="#e0dde8"
       transform="translate(480.12109,776.05859)"
       id="path12" />
    <path
       d="m 0,0 c 3.827,0.048 3.827,0.048 6.062,1.562 2.576,4.092 2.282,8.405 2.313,13.063 0.021,0.755 0.041,1.511 0.063,2.289 0.032,4.612 -0.318,7.599 -3.313,11.336 -3,2 -3,2 -6.5,1.938 -3.5,-0.938 -3.5,-0.938 -5.195,-2.934 C -8.342,23.174 -8.314,19.649 -8.25,15.25 -8.262,14.456 -8.273,13.662 -8.285,12.844 -8.253,6.37 -7.309,0.472 0,0 Z"
       fill="#e6e4ed"
       transform="translate(641.875,924.75)"
       id="path13" />
    <path
       d="m 0,0 c 1.65,0 3.3,0 5,0 3.843,6.759 5.471,13.41 7,21 0.104,0.505 0.104,0.505 0.629,3.059 0.469,2.311 0.927,4.624 1.371,6.941 -0.99,0.33 -1.98,0.66 -3,1 0,-0.99 0,-1.98 0,-3 C 8.69,29.33 6.38,29.66 4,30 4.33,28.02 4.66,26.04 5,24 4.01,24 3.02,24 2,24 2,23.34 2,22.68 2,22 1.464,21.794 0.928,21.587 0.375,21.375 -2.92,19.467 -5.594,16.952 -8,14 c 0,-0.66 0,-1.32 0,-2 2.595,-1.298 4.542,-1.133 7.438,-1.125 C 0.406,10.872 1.374,10.87 2.371,10.867 5,11 5,11 8,12 7.34,11.01 6.68,10.02 6,9 2.799,8.663 0.071,9.09 -3,10 -2.67,9.01 -2.34,8.02 -2,7 -1.34,7 -0.68,7 0,7 0,4.69 0,2.38 0,0 Z"
       fill="#d4d0e0"
       transform="translate(795,614)"
       id="path14" />
    <path
       d="m 0,0 c 0,0.66 0,1.32 0,2 -0.543,0.097 -0.543,0.097 -3.289,0.586 -1.445,0.263 -2.891,0.526 -4.336,0.789 -0.713,0.126 -1.426,0.253 -2.16,0.383 -3.149,0.578 -6.092,1.2 -9.125,2.246 -4.235,1.365 -8.506,1.929 -12.902,2.558 -1.716,0.248 -3.431,0.499 -5.145,0.754 -0.376,0.054 -0.376,0.054 -2.281,0.327 C -41,10 -41,10 -42,11 c -2.311,0.099 -4.625,0.13 -6.938,0.125 -0.633,10e-4 -0.633,10e-4 -3.839,0.008 C -56,11 -56,11 -58,10 -57.375,8.125 -57.375,8.125 -56,6 -45.138,1.681 -32.597,1.61 -21.062,0.875 -19.801,0.789 -18.54,0.702 -17.24,0.613 -11.478,0.231 -5.777,-0.043 0,0 Z"
       fill="#1a1728"
       transform="translate(756,709)"
       id="path15" />
    <path
       d="M 0,0 C 2.974,0.33 4.729,0.796 7.141,2.609 9.648,5.833 9.534,7.955 9.5,12 9.51,13.217 9.521,14.434 9.531,15.688 9,19 9,19 7.16,21.441 5,23 5,23 1.938,22.938 -1.147,21.953 -2.148,21.579 -4,19 -4.434,15.82 -4.434,15.82 -4.438,12.125 -4.457,10.911 -4.476,9.696 -4.496,8.445 -3.926,4.489 -2.733,2.846 0,0 Z"
       fill="#e0dee9"
       transform="translate(597,887)"
       id="path16" />
    <path
       d="m 0,0 c -0.66,0.99 -1.32,1.98 -2,3 0,0.99 0,1.98 0,3 -27.214,5.577 -27.214,5.577 -35,5 -0.66,-0.66 -1.32,-1.32 -2,-2 0,-2 0,-2 1,-4 4.866,-1.995 9.897,-2.815 15.062,-3.625 0.832,-0.132 1.664,-0.264 2.521,-0.4 C -13.556,-0.047 -6.939,-0.336 0,0 Z"
       fill="#161422"
       transform="translate(660,759)"
       id="path17" />
    <path
       d="M 0,0 C 0,0.66 0,1.32 0,2 -0.424,2.055 -0.424,2.055 -2.57,2.332 -8.824,3.177 -14.96,4.145 -21.125,5.5 -32.674,8.031 -43.196,9.29 -55,9 -55.33,8.01 -55.66,7.02 -56,6 -46.193,1.206 -35.832,0.68 -25.062,0.375 -23.973,0.336 -22.883,0.298 -21.76,0.258 -14.505,0.016 -7.258,-0.044 0,0 Z"
       fill="#181625"
       transform="translate(722,529)"
       id="path18" />
    <path
       d="M 0,0 C 0.99,0 1.98,0 3,0 3.33,0.66 3.66,1.32 4,2 4.99,2.33 5.98,2.66 7,3 6.959,4.031 6.918,5.062 6.875,6.125 7,10 7,10 8.062,12.688 9.482,17.704 9.443,22.974 8,28 5.363,30.03 3.68,30.919 0.375,31.312 -2,31 -2,31 -5,29 c -0.701,-2.663 -0.777,-5.24 -1,-8 0.99,0 1.98,0 3,0 0.33,-0.66 0.66,-1.32 1,-2 0.66,0 1.32,0 2,0 C 1.338,18.685 2.672,18.354 4,18 3.34,17.381 2.68,16.763 2,16.125 0,14 0,14 0,12 0.66,12 1.32,12 2,12 2.263,7.668 1.292,4.12 0,0 Z"
       fill="#e2dfea"
       transform="translate(598,849)"
       id="path19" />
    <path
       d="M 0,0 C 3.588,3.091 6.194,6.162 6.875,10.938 6.916,11.948 6.957,12.959 7,14 5.866,14.124 4.731,14.247 3.562,14.375 2.975,14.478 2.975,14.478 0,15 c -0.33,0.66 -0.66,1.32 -1,2 1.65,-0.33 3.3,-0.66 5,-1 0,0.66 0,1.32 0,2 0.66,0 1.32,0 2,0 0,0.66 0,1.32 0,2 -0.526,0.072 -0.526,0.072 -3.188,0.438 -2.967,0.437 -5.88,0.94 -8.812,1.562 0,-0.66 0,-1.32 0,-2 0.66,0 1.32,0 2,0 0,-0.66 0,-1.32 0,-2 -0.99,0 -1.98,0 -3,0 0,-0.66 0,-1.32 0,-2 2,-1.625 2,-1.625 4,-3 -0.33,-0.99 -0.66,-1.98 -1,-3 -0.99,-0.33 -1.98,-0.66 -3,-1 0,-0.66 0,-1.32 0,-2 0.66,0 1.32,0 2,0 0,-0.66 0,-1.32 0,-2 -1.98,0.33 -3.96,0.66 -6,1 0,-0.66 0,-1.32 0,-2 0.66,-0.33 1.32,-0.66 2,-1 -0.99,-0.33 -1.98,-0.66 -3,-1 0,-0.66 0,-1.32 0,-2 8.391,-1.481 8.391,-1.481 12,0 z"
       fill="#e4e1eb"
       transform="translate(483,778)"
       id="path20" />
    <path
       d="m 0,0 c 3.793,1.002 6.715,1.81 10,4 0.113,0.33 0.113,0.33 0.688,2 1.646,2.508 2.585,2.548 5.437,3.25 1.279,0.247 2.558,0.495 3.875,0.75 0,0.33 0,0.66 0,1 -4.229,0.505 -8.458,1.003 -12.688,1.5 -1.198,0.143 -2.396,0.286 -3.63,0.434 -0.579,0.067 -0.579,0.067 -3.506,0.41 -1.063,0.125 -2.126,0.251 -3.222,0.381 -2.674,0.249 -5.27,0.327 -7.954,0.275 0.375,-0.424 0.75,-0.848 1.137,-1.285 C -6.303,8.635 -3.087,4.449 0,0 Z"
       fill="#e3e0eb"
       transform="translate(516,859)"
       id="path21" />
    <path
       d="M 0,0 C 0.33,0 0.66,0 1,0 1.027,1.937 1.046,3.875 1.062,5.812 1.074,6.891 1.086,7.97 1.098,9.082 1,12 1,12 0,15 c -4.62,0 -9.24,0 -14,0 -0.33,0.66 -0.66,1.32 -1,2 -1.32,0 -2.64,0 -4,0 0,-3.96 0,-7.92 0,-12 0.99,0.33 1.98,0.66 3,1 0.688,2.062 0.688,2.062 1,4 1.32,0.33 2.64,0.66 4,1 C -11.66,9.68 -12.32,8.36 -13,7 -6.623,3.934 -6.623,3.934 -3.625,4.25 -2,5 -2,5 -1,6 -0.67,4.02 -0.34,2.04 0,0 Z"
       fill="#e2dfea"
       transform="translate(490,795)"
       id="path22" />
    <path
       d="M 0,0 C 0,0.33 0,0.66 0,1 -0.949,1.144 -1.898,1.289 -2.875,1.438 -6,2 -6,2 -8,3 c 0,0.66 0,1.32 0,2 -0.66,0 -1.32,0 -2,0 0.33,1.32 0.66,2.64 1,4 1.65,0 3.3,0 5,0 0,0.66 0,1.32 0,2 -0.687,0.121 -1.374,0.242 -2.082,0.367 -0.901,0.168 -1.802,0.335 -2.73,0.508 -0.894,0.162 -1.787,0.325 -2.708,0.492 C -14,13 -14,13 -17,15 c -2.511,-1.255 -2.871,-2.501 -4,-5 -0.66,0 -1.32,0 -2,0 C -23.082,9.216 -23.165,8.433 -23.25,7.625 -24,5 -24,5 -26.047,3.836 -26.369,3.698 -26.369,3.698 -28,3 c 3.165,-0.51 6.332,-1.006 9.5,-1.5 0.887,-0.143 1.774,-0.286 2.688,-0.434 C -10.469,0.241 -5.406,-0.152 0,0 Z"
       fill="#dddae6"
       transform="translate(597,338)"
       id="path23" />
    <path
       d="M 0,0 C 0.66,0 1.32,0 2,0 2.33,0.99 2.66,1.98 3,3 5.001,5.365 5.968,5.989 9,7 7.587,11.827 5.57,15.716 3,20 0.321,17.681 -0.662,15.682 -1.688,12.312 -1.813,11.908 -1.813,11.908 -2.449,9.863 -2.631,9.248 -2.813,8.634 -3,8 -3.99,8 -4.98,8 -6,8 -6.66,6.35 -7.32,4.7 -8,3 -6.866,2.691 -5.731,2.381 -4.562,2.062 -1,1 -1,1 0,0 Z"
       fill="#e3e1eb"
       transform="translate(806,796)"
       id="path24" />
    <path
       d="M 0,0 C 3.166,0.565 6.041,1.767 9,3 6.681,4.546 4.494,5.796 2,7 2,7.66 2,8.32 2,9 1.34,9 0.68,9 0,9 c 0,0.99 0,1.98 0,3 -0.33,0.33 -0.66,0.66 -1,1 0.66,0 1.32,0 2,0 0,-0.99 0,-1.98 0,-3 0.99,0 1.98,0 3,0 -0.812,1.938 -0.812,1.938 -2,4 -0.99,0.33 -1.98,0.66 -3,1 0,0.66 0,1.32 0,2 -0.99,0 -1.98,0 -3,0 0,-0.66 0,-1.32 0,-2 -1.32,0 -2.64,0 -4,0 -0.66,-3.63 -1.32,-7.26 -2,-11 0.66,0 1.32,0 2,0 0.66,0.66 1.32,1.32 2,2 2.625,0.125 2.625,0.125 5,0 C -1.021,5.196 -1.041,4.391 -1.062,3.562 -1,1 -1,1 0,0 Z"
       fill="#ddd9e6"
       transform="translate(782,586)"
       id="path25" />
    <path
       d="m 0,0 c -0.562,2.812 -0.562,2.812 -2,6 -6.504,3.794 -14.626,5.837 -22,4 1.32,-0.33 2.64,-0.66 4,-1 0,-0.99 0,-1.98 0,-3 0.66,0 1.32,0 2,0 0.33,-1.32 0.66,-2.64 1,-4 5.808,-1.506 10.998,-2.218 17,-2 z"
       fill="#e9e7ef"
       transform="translate(607,337)"
       id="path26" />
    <path
       d="M 0,0 C 0.99,0.33 1.98,0.66 3,1 2.67,1.99 2.34,2.98 2,4 c 0.438,2.688 0.438,2.688 1,5 2.97,0.99 5.94,1.98 9,3 0,-0.66 0,-1.32 0,-2 C 10.68,9.67 9.36,9.34 8,9 11.75,6 11.75,6 14,6 13.34,9.3 12.68,12.6 12,16 11.67,15.34 11.34,14.68 11,14 9.886,14.165 8.773,14.33 7.625,14.5 4,15 4,15 2,15 c 0,0.66 0,1.32 0,2 0.66,0 1.32,0 2,0 0,0.66 0,1.32 0,2 -2.438,-0.625 -2.438,-0.625 -5,-2 -0.812,-3.125 -0.812,-3.125 -1,-6 0.99,0 1.98,0 3,0 0,0.66 0,1.32 0,2 C 1.66,12.67 2.32,12.34 3,12 2.175,11.546 1.35,11.092 0.5,10.625 0.087,10.357 0.087,10.357 -2,9 -2,8.34 -2,7.68 -2,7 -2.66,7 -3.32,7 -4,7 -4,7.66 -4,8.32 -4,9 -4.66,9 -5.32,9 -6,9 -5.333,7.667 -4.667,6.333 -4,5 -3.67,4.278 -3.34,3.556 -3,2.812 -2,1 -2,1 0,0 Z"
       fill="#dcd9e6"
       transform="translate(767,559)"
       id="path27" />
    <path
       d="M 0,0 C 0.66,0 1.32,0 2,0 2,0.66 2,1.32 2,2 3.32,1.67 4.64,1.34 6,1 5.988,1.748 5.977,2.495 5.965,3.266 5.956,4.25 5.947,5.235 5.938,6.25 5.926,7.225 5.914,8.199 5.902,9.203 5.988,11.658 6.293,13.662 7,16 6.67,15.34 6.34,14.68 6,14 2.938,13.375 2.938,13.375 0,13 0,12.34 0,11.68 0,11 -0.464,10.99 -0.464,10.99 -2.812,10.938 -6,10 -6,10 -7.066,8.375 -7.8,6.618 -8.408,4.81 -9,3 c 0.66,0 1.32,0 2,0 0,0.66 0,1.32 0,2 2.375,-0.25 2.375,-0.25 5,-1 1.312,-2.062 1.312,-2.062 2,-4 z"
       fill="#d5d1e0"
       transform="translate(450,488)"
       id="path28" />
    <path
       d="M 0,0 C 1.324,6.257 1.324,6.257 -0.062,9.438 -2,11 -2,11 -5,11.438 -8,11 -8,11 -9.875,9.875 -11.49,7.183 -11.262,5.078 -11,2 -8.745,-2.51 -4.157,-0.706 0,0 Z"
       fill="#e6e3ed"
       transform="translate(689,922)"
       id="path29" />
    <path
       d="M 0,0 C 0.99,0 1.98,0 3,0 3.103,0.784 3.206,1.567 3.312,2.375 4,5 4,5 7,7 c 0,0.99 0,1.98 0,3 0.66,0 1.32,0 2,0 0,0.99 0,1.98 0,3 C 8.01,13 7.02,13 6,13 5.753,12.031 5.505,11.061 5.25,10.062 4.837,9.052 4.425,8.041 4,7 1.875,6.125 1.875,6.125 0,6 c 0,0.66 0,1.32 0,2 -1.32,0 -2.64,0 -4,0 -0.33,0.99 -0.66,1.98 -1,3 -0.66,0 -1.32,0 -2,0 0,-1.32 0,-2.64 0,-4 -2.31,-0.33 -4.62,-0.66 -7,-1 0,-0.66 0,-1.32 0,-2 1.65,0 3.3,0 5,0 -0.33,-0.99 -0.66,-1.98 -1,-3 0.638,0.012 1.276,0.023 1.934,0.035 0.826,0.009 1.652,0.018 2.504,0.027 0.411,0.006 0.411,0.006 2.496,0.036 C -1,1 -1,1 0,0 Z"
       fill="#d7d3e2"
       transform="translate(738,799)"
       id="path30" />
    <path
       d="m 0,0 c 10.558,-0.369 10.558,-0.369 15,2 0.33,2.97 0.66,5.94 1,9 C 9.061,9.885 4.695,7.295 0,2 0,1.34 0,0.68 0,0 Z"
       fill="#e7e5ee"
       transform="translate(790,627)"
       id="path31" />
    <path
       d="M 0,0 C 1.32,0.33 2.64,0.66 4,1 3.01,1 2.02,1 1,1 1,1.66 1,2.32 1,3 1.99,3 2.98,3 4,3 4.339,4.415 4.671,5.832 5,7.25 5.186,8.039 5.371,8.828 5.562,9.641 6,12 6,12 6,16 4.02,16 2.04,16 0,16 -0.33,15.34 -0.66,14.68 -1,14 -1.99,14 -2.98,14 -4,14 -5.567,7.011 -5.567,7.011 -3.953,4.133 -2.562,2.5 -2.562,2.5 0,0 Z m 0,3 c 1,2 1,2 1,2 z"
       fill="#dedbe7"
       transform="translate(466,414)"
       id="path32" />
    <path
       d="M 0,0 C 0.99,0 1.98,0 3,0 3.33,0.66 3.66,1.32 4,2 4.99,2.33 5.98,2.66 7,3 6.959,4.031 6.918,5.062 6.875,6.125 7,10 7,10 8.062,12.688 9.514,17.817 8.627,22.76 8,28 7.67,28 7.34,28 7,28 7,25.69 7,23.38 7,21 6.01,20.67 5.02,20.34 4,20 4.66,20 5.32,20 6,20 5.196,19.237 4.391,18.474 3.562,17.688 1,15 1,15 0,12 0.66,12 1.32,12 2,12 2.263,7.668 1.292,4.12 0,0 Z"
       fill="#dedbe7"
       transform="translate(598,849)"
       id="path33" />
    <path
       d="M 0,0 C 0,0.66 0,1.32 0,2 0.251,2.22 0.251,2.22 1.52,3.332 3,5 3,5 3.074,7.262 3.01,7.662 3.01,7.662 2.688,9.688 2.568,10.496 2.448,11.304 2.324,12.137 2.217,12.752 2.11,13.366 2,14 1.34,13.67 0.68,13.34 0,13 0,11.68 0,10.36 0,9 c -0.99,0 -1.98,0 -3,0 0,0.66 0,1.32 0,2 -0.99,0 -1.98,0 -3,0 -0.33,-0.99 -0.66,-1.98 -1,-3 -1.65,0.33 -3.3,0.66 -5,1 0.33,-0.99 0.66,-1.98 1,-3 0.804,-0.124 1.609,-0.248 2.438,-0.375 C -7.717,5.419 -6.871,5.212 -6,5 -5.67,4.34 -5.34,3.68 -5,3 -5.743,3.351 -6.485,3.701 -7.25,4.062 -10.211,5.072 -11.121,4.88 -14,4 -4.59,-0.592 -4.59,-0.592 0,0 Z"
       fill="#dedbe7"
       transform="translate(454,362)"
       id="path34" />
    <path
       d="M 0,0 C 0,0.66 0,1.32 0,2 -0.447,2.061 -0.447,2.061 -2.711,2.367 -9.224,3.27 -15.627,4.24 -22.012,5.828 -24,6 -24,6 -27,4 -29.699,3.586 -29.699,3.586 -32.688,3.375 -33.681,3.3 -34.675,3.225 -35.699,3.148 -36.458,3.099 -37.218,3.05 -38,3 c 0,-0.66 0,-1.32 0,-2 4.083,-0.171 8.167,-0.336 12.25,-0.5 1.14,-0.048 2.279,-0.095 3.453,-0.145 C -14.86,0.06 -7.443,-0.061 0,0 Z"
       fill="#1a1728"
       transform="translate(722,529)"
       id="path35" />
    <path
       d="M 0,0 C 2.209,3.314 2.225,4.345 2.125,8.188 2.107,9.089 2.089,9.99 2.07,10.918 2.047,11.605 2.024,12.292 2,13 -0.036,12.504 -2.017,11.994 -4,11.312 -6,11 -6,11 -7.938,12 -10,13 -10,13 -12.5,13 -16.087,11.565 -17.174,9.314 -19,6 c 0,-0.66 0,-1.32 0,-2 0.763,0.309 1.526,0.619 2.312,0.938 1.876,0.741 3.775,1.424 5.688,2.062 0,0.66 0,1.32 0,2 -0.66,0 -1.32,0 -2,0 0,0.66 0,1.32 0,2 1.052,-0.516 2.104,-1.031 3.188,-1.562 C -6.515,8.003 -4.494,7.835 -1,9 -1,8.34 -1,7.68 -1,7 -1.66,7 -2.32,7 -3,7 -3,6.34 -3,5.68 -3,5 -4.65,5.33 -6.3,5.66 -8,6 -7.67,5.01 -7.34,4.02 -7,3 -4.69,3 -2.38,3 0,3 0,2.01 0,1.02 0,0 Z"
       fill="#dbd8e5"
       transform="translate(490,789)"
       id="path36" />
    <path
       d="M 0,0 C 0,0.99 0,1.98 0,3 0.66,3 1.32,3 2,3 2,2.34 2,1.68 2,1 2.66,1 3.32,1 4,1 4,2.65 4,4.3 4,6 5.65,5.67 7.3,5.34 9,5 9,5.66 9,6.32 9,7 9.603,6.965 10.207,6.93 10.828,6.895 17.389,6.672 17.389,6.672 20.562,8.375 22,10 22,10 22,12 16.477,11.247 16.477,11.247 14.067,10 11.84,8.922 10.125,8.612 7.672,8.367 6.873,8.283 6.073,8.2 5.25,8.113 4.837,8.074 4.837,8.074 2.75,7.875 1.91,7.789 1.069,7.702 0.203,7.613 -1.864,7.402 -3.932,7.2 -6,7 -6,5 -6,5 -5,4 -5.33,3.34 -5.66,2.68 -6,2 -8.062,1.375 -8.062,1.375 -10,1 -6.62,-0.04 -3.522,-0.08 0,0 Z m -5,1 c 0.33,0.66 0.66,1.32 1,2 C -3.01,2.67 -2.02,2.34 -1,2 -2.32,1.67 -3.64,1.34 -5,1 Z"
       fill="#d7d4e2"
       transform="translate(718,531)"
       id="path37" />
    <path
       d="M 0,0 C 0.66,0.66 1.32,1.32 2,2 2.66,1.67 3.32,1.34 4,1 4.99,1.33 5.98,1.66 7,2 7.33,2.99 7.66,3.98 8,5 4.707,10.123 0.208,13.952 -5,17 -5.66,16.67 -6.32,16.34 -7,16 -6.701,15.608 -6.701,15.608 -5.188,13.625 -2.379,9.467 -1.254,4.809 0,0 Z"
       fill="#e0dde8"
       transform="translate(670,647)"
       id="path38" />
    <path
       d="m 0,0 c 1.256,0.005 2.512,0.009 3.807,0.014 3.085,0.011 6.17,0.028 9.255,0.048 -7.83,5.221 -17.959,4.235 -27,4 0,-0.66 0,-1.319 0,-2 -2.309,0 -4.62,0 -7,0 0,-0.329 0,-0.66 0,-1 C -13.985,-0.249 -7.053,-0.048 0,0 Z"
       fill="#1d1a2c"
       transform="translate(678.9375,494.9375)"
       id="path39" />
    <path
       d="M 0,0 C 0.66,0 1.32,0 2,0 4,3 4,3 4,7 5.65,6.67 7.3,6.34 9,6 c 0,1.98 0,3.96 0,6 0.66,0 1.32,0 2,0 0,1.32 0,2.64 0,4 -1.32,0 -2.64,0 -4,0 0,0.99 0,1.98 0,3 C 6.01,18.67 5.02,18.34 4,18 4,17.34 4,16.68 4,16 3.34,16 2.68,16 2,16 2.33,14.68 2.66,13.36 3,12 2.34,11.67 1.68,11.34 1,11 1.33,10.01 1.66,9.02 2,8 1.66,5.957 1.66,5.957 1.062,3.812 0.712,2.554 0.361,1.296 0,0 Z M 6,8 C 5.67,8.495 5.67,8.495 4,11 4.99,11 5.98,11 7,11 6.67,10.01 6.34,9.02 6,8 Z"
       fill="#dbd7e5"
       transform="translate(720,809)"
       id="path40" />
    <path
       d="M 0,0 C 0.66,0.66 1.32,1.32 2,2 -0.578,4.648 -2.916,6.944 -6,9 -7.505,8.05 -9.004,7.09 -10.5,6.125 -11.335,5.591 -12.171,5.058 -13.031,4.508 -13.681,4.01 -14.331,3.513 -15,3 c 0,-0.66 0,-1.32 0,-2 1.748,-0.365 3.498,-0.716 5.25,-1.062 0.487,-0.099 0.487,-0.099 2.953,-0.598 C -4.092,-0.989 -2.517,-0.975 0,0 Z"
       fill="#dfdce8"
       transform="translate(501,352)"
       id="path41" />
    <path
       d="M 0,0 C -1.75,3.875 -1.75,3.875 -4,5 -6.552,5.072 -9.075,5.093 -11.625,5.062 -12.331,5.058 -13.038,5.053 -13.766,5.049 -15.51,5.037 -17.255,5.019 -19,5 c 0.812,-1.953 0.812,-1.953 2,-4 5.569,-1.392 11.288,-1.103 17,-1 z"
       fill="#1b182a"
       transform="translate(597,731)"
       id="path42" />
    <path
       d="M 0,0 C 2.64,0 5.28,0 8,0 -3.923,10 -3.923,10 -8,10 -7.67,8.68 -7.34,7.36 -7,6 -8.32,5.34 -9.64,4.68 -11,4 -11,3.34 -11,2.68 -11,2 -7.333,2 -3.667,2 0,2 0,1.34 0,0.68 0,0 Z"
       fill="#e3e1eb"
       transform="translate(583,590)"
       id="path43" />
    <path
       d="M 0,0 C 1.65,0 3.3,0 5,0 6.067,2.304 7.064,4.64 8,7 7.67,7.66 7.34,8.32 7,9 6.546,8.99 6.546,8.99 4.25,8.938 1.573,8.989 -0.47,9.222 -3,10 -2.67,9.01 -2.34,8.02 -2,7 -1.34,7 -0.68,7 0,7 0,4.69 0,2.38 0,0 Z"
       fill="#e3e1eb"
       transform="translate(795,614)"
       id="path44" />
    <path
       d="M 0,0 C 0,0.66 0,1.32 0,2 0.99,2 1.98,2 3,2 2.67,2.99 2.34,3.98 2,5 1.01,5 0.02,5 -1,5 -1.33,6.32 -1.66,7.64 -2,9 -2.33,7.68 -2.66,6.36 -3,5 c -0.66,0 -1.32,0 -2,0 -0.66,1.65 -1.32,3.3 -2,5 -0.99,0 -1.98,0 -3,0 C -9.695,6.439 -9,5 -6.688,2.188 -4,0 -4,0 0,0 Z"
       fill="#cec9dc"
       transform="translate(724,828)"
       id="path45" />
    <path
       d="m 0,0 c 0.66,0 1.32,0 2,0 -0.75,6.625 -0.75,6.625 -3,10 2.569,1.284 4.766,1.33 7.625,1.562 1.003,0.084 2.006,0.168 3.039,0.254 0.385,0.031 0.385,0.031 2.336,0.184 0,0.33 0,0.66 0,1 -2.563,0.027 -5.125,0.047 -7.688,0.062 -0.36,0.005 -0.36,0.005 -2.185,0.026 C -1.716,13.105 -5.266,12.935 -9,12 c 0.33,-0.66 0.66,-1.32 1,-2 1.32,0 2.64,0 4,0 C -4.041,9.639 -4.041,9.639 -4.25,7.812 -3.923,4.129 -2.539,2.614 0,0 Z"
       fill="#dbd8e5"
       transform="translate(737,697)"
       id="path46" />
    <path
       d="M 0,0 C 0.33,0.66 0.66,1.32 1,2 2.155,1.835 2.155,1.835 8,1 7.814,1.804 7.629,2.609 7.438,3.438 7.365,3.86 7.365,3.86 7,6 7.33,6.33 7.66,6.66 8,7 8.32,10.846 7.596,13.51 6,17 4.472,14.033 3.134,11.028 1.875,7.938 1.522,7.08 1.169,6.223 0.805,5.34 0,3 0,3 0,0 Z"
       fill="#d9d5e3"
       transform="translate(466,551)"
       id="path47" />
    <path
       d="M 0,0 C 0.33,0.99 0.66,1.98 1,3 1.66,3 2.32,3 3,3 3.33,4.65 3.66,6.3 4,8 -2.625,9.25 -2.625,9.25 -6,7 -6.188,3.875 -6.188,3.875 -6,1 c 0.33,0.66 0.66,1.32 1,2 1.65,-0.99 3.3,-1.98 5,-3 z"
       fill="#e4e2eb"
       transform="translate(599,871)"
       id="path48" />
    <path
       d="m 0,0 c 0,4.62 0,9.24 0,14 -0.66,-0.99 -1.32,-1.98 -2,-3 -0.99,0.66 -1.98,1.32 -3,2 -0.66,-0.33 -1.32,-0.66 -2,-1 -0.407,-2.322 -0.744,-4.657 -1,-7 0.825,0.165 0.825,0.165 5,1 0,-0.66 0,-1.32 0,-2 -0.66,0 -1.32,0 -2,0 0,-0.99 0,-1.98 0,-3 2,-1 2,-1 5,-1 z"
       fill="#d6d3e2"
       transform="translate(824,757)"
       id="path49" />
    <path
       d="M 0,0 C 1.32,0 2.64,0 4,0 4,0.66 4,1.32 4,2 4.66,1.67 5.32,1.34 6,1 8,0.96 10,0.957 12,1 12.33,1.99 12.66,2.98 13,4 10.59,5.537 9.499,6.098 6.641,5.539 5.852,5.237 5.063,4.936 4.25,4.625 3.451,4.329 2.652,4.032 1.828,3.727 1.225,3.487 0.622,3.247 0,3 -0.33,3.33 -0.66,3.66 -1,4 -2.515,4.232 -4.038,4.412 -5.562,4.562 -5.976,4.604 -5.976,4.604 -8.066,4.816 -8.385,4.847 -8.385,4.847 -10,5 -9.34,4.01 -8.68,3.02 -8,2 -5.678,1.593 -3.343,1.256 -1,1 -0.67,0.67 -0.34,0.34 0,0 Z"
       fill="#cecadc"
       transform="translate(690,836)"
       id="path50" />
    <path
       d="m 0,0 c -3.473,1.158 -6.361,1.069 -10,1 0,0.99 0,1.98 0,3 -0.66,0 -1.32,0 -2,0 -0.33,1.98 -0.66,3.96 -1,6 -1.436,0.506 -2.874,1.004 -4.312,1.5 -0.801,0.278 -1.602,0.557 -2.426,0.844 C -22,13 -22,13 -25,13 c 0,-0.66 0,-1.32 0,-2 0.71,-0.242 1.421,-0.485 2.152,-0.734 0.919,-0.336 1.839,-0.671 2.786,-1.016 0.916,-0.325 1.833,-0.65 2.777,-0.984 C -15,7 -15,7 -14.184,4.859 -14.123,4.246 -14.062,3.632 -14,3 c -0.99,-0.66 -1.98,-1.32 -3,-2 2.082,-0.364 4.165,-0.716 6.25,-1.062 0.58,-0.099 0.58,-0.099 3.516,-0.598 C -4.375,-0.961 -2.667,-0.944 0,0 Z"
       fill="#cec9db"
       transform="translate(620,335)"
       id="path51" />
    <path
       d="M 0,0 C 0.33,0 0.66,0 1,0 1,2.31 1,4.62 1,7 1.664,6.916 2.328,6.832 3.012,6.746 11.782,5.735 11.782,5.735 16,7 15.67,7.66 15.34,8.32 15,9 11.7,9 8.4,9 5,9 5,9.99 5,10.98 5,12 3.35,12 1.7,12 0,12 0,8.04 0,4.08 0,0 Z"
       fill="#e9e7ef"
       transform="translate(440,815)"
       id="path52" />
    <path
       d="m 0,0 c 6.75,0.75 6.75,0.75 9,3 0.99,0 1.98,0 3,0 0,0.66 0,1.32 0,2 C 9.69,5.66 7.38,6.32 5,7 5,7.66 5,8.32 5,9 3.02,9.33 1.04,9.66 -1,10 -1.33,8.68 -1.66,7.36 -2,6 -1.67,6.66 -1.34,7.32 -1,8 -0.34,8 0.32,8 1,8 1,7.34 1,6.68 1,6 2.65,5.67 4.3,5.34 6,5 6,4.34 6,3.68 6,3 5.01,2.835 5.01,2.835 0,2 0,1.34 0,0.68 0,0 Z"
       fill="#d5d2e1"
       transform="translate(783,374)"
       id="path53" />
    <path
       d="m 0,0 c 0.66,0.66 1.32,1.32 2,2 -2.957,1.478 -5.742,1.06 -9,1 0,0.66 0,1.32 0,2 1.32,0.33 2.64,0.66 4,1 -0.825,0.495 -0.825,0.495 -5,3 -2,-3 -2,-3 -2,-7 -0.66,-0.33 -1.32,-0.66 -2,-1 4.01,-1.337 7.82,-1.202 12,-1 z"
       fill="#d6d2e1"
       transform="translate(478,775)"
       id="path54" />
    <path
       d="M 0,0 C 2.755,2.31 3.898,3.574 4.75,7.125 4.981,9.787 5,12.328 5,15 4.01,14.67 3.02,14.34 2,14 2,13.34 2,12.68 2,12 1.34,12 0.68,12 0,12 -0.928,7.667 -0.928,4.333 0,0 Z"
       fill="#dcd9e6"
       transform="translate(748,654)"
       id="path55" />
    <path
       d="m 0,0 c -2.538,3.103 -5.234,3.854 -9,5 -0.33,0.33 -0.66,0.66 -1,1 0.99,0.165 0.99,0.165 6,1 0,0.33 0,0.66 0,1 -6.055,0.195 -6.055,0.195 -8,0 -0.66,-0.66 -1.32,-1.32 -2,-2 0,-2 0,-2 1,-4 4.351,-2.072 8.236,-2.191 13,-2 z"
       fill="#181626"
       transform="translate(635,762)"
       id="path56" />
    <path
       d="M 0,0 C 0.66,1.98 1.32,3.96 2,6 4.31,6 6.62,6 9,6 9,6.33 9,6.66 9,7 4.38,7.33 -0.24,7.66 -5,8 -5,5.69 -5,3.38 -5,1 -2,0 -2,0 0,0 Z"
       fill="#dad7e5"
       transform="translate(711,705)"
       id="path57" />
    <path
       d="M 0,0 C 1.32,0.33 2.64,0.66 4,1 5.324,7.257 5.324,7.257 3.938,10.438 1.261,12.596 -0.659,12.297 -4,12 -3.01,11.34 -2.02,10.68 -1,10 0.218,6.956 -0.176,5.091 -1,2 -0.67,1.34 -0.34,0.68 0,0 Z"
       fill="#d6d2e1"
       transform="translate(685,921)"
       id="path58" />
    <path
       d="M 0,0 C 3.166,0.565 6.041,1.767 9,3 6.681,4.546 4.494,5.796 2,7 2,7.66 2,8.32 2,9 -0.31,8.67 -2.62,8.34 -5,8 -5,7.34 -5,6.68 -5,6 -3.68,6 -2.36,6 -1,6 -1.021,5.196 -1.041,4.391 -1.062,3.562 -1,1 -1,1 0,0 Z"
       fill="#dddae6"
       transform="translate(782,586)"
       id="path59" />
    <path
       d="m 0,0 c 5.28,0 10.56,0 16,0 0.33,0.99 0.66,1.98 1,3 0.99,0.33 1.98,0.66 3,1 C 17.188,4.625 17.188,4.625 14,5 13.01,4.34 12.02,3.68 11,3 8.301,2.586 8.301,2.586 5.312,2.375 4.319,2.3 3.325,2.225 2.301,2.148 1.542,2.099 0.782,2.05 0,2 0,1.34 0,0.68 0,0 Z"
       fill="#1c192b"
       transform="translate(684,530)"
       id="path60" />
    <path
       d="M 0,0 C 0.66,0 1.32,0 2,0 4.86,4.779 5.259,7.868 4.688,13.375 4.568,14.62 4.448,15.865 4.324,17.148 4.217,18.089 4.11,19.03 4,20 3.67,20 3.34,20 3,20 3,17.69 3,15.38 3,13 2.01,12.67 1.02,12.34 0,12 0.66,12 1.32,12 2,12 1.175,11.216 0.35,10.433 -0.5,9.625 -3,7 -3,7 -3,5 -2.175,5.33 -2.175,5.33 2,7 1.34,4.69 0.68,2.38 0,0 Z"
       fill="#cac5d9"
       transform="translate(602,857)"
       id="path61" />
    <path
       d="M 0,0 C 0.99,0.33 1.98,0.66 3,1 3,1.66 3,2.32 3,3 3.66,3.33 4.32,3.66 5,4 5,3.34 5,2.68 5,2 5.99,2.33 6.98,2.66 8,3 8.688,5.062 8.688,5.062 9,7 8.01,7 7.02,7 6,7 5.67,7.99 5.34,8.98 5,10 4.34,10 3.68,10 3,10 3,8.68 3,7.36 3,6 0.69,5.67 -1.62,5.34 -4,5 -4,4.34 -4,3.68 -4,3 -2.35,3 -0.7,3 1,3 0.67,2.01 0.34,1.02 0,0 Z"
       fill="#d9d6e4"
       transform="translate(728,800)"
       id="path62" />
    <path
       d="m 0,0 c 0.825,0.33 0.825,0.33 5,2 0,0.66 0,1.32 0,2 2.64,0.33 5.28,0.66 8,1 0,0.33 0,0.66 0,1 C 10.708,6.027 8.417,6.046 6.125,6.062 4.849,6.074 3.573,6.086 2.258,6.098 -1,6 -1,6 -3,5 -1.125,1.125 -1.125,1.125 0,0 Z"
       fill="#1f1c31"
       transform="translate(701,714)"
       id="path63" />
    <path
       d="M 0,0 C 0.99,0 1.98,0 3,0 3,0.66 3,1.32 3,2 3.66,2 4.32,2 5,2 5,2.66 5,3.32 5,4 4.67,4.165 4.67,4.165 3,5 1.825,7.626 0.91,10.27 0,13 -1.32,12.34 -2.64,11.68 -4,11 -3.75,8.625 -3.75,8.625 -3,6 -1,4.812 -1,4.812 1,4 1.33,3.34 1.66,2.68 2,2 1.34,2 0.68,2 0,2 0,1.34 0,0.68 0,0 Z"
       fill="#dddae6"
       transform="translate(779,617)"
       id="path64" />
    <path
       d="m 0,0 c 2.391,3.825 2.56,7.597 3,12 -2.64,0.33 -5.28,0.66 -8,1 -0.33,-0.99 -0.66,-1.98 -1,-3 0.99,0 1.98,0 3,0 0,-0.66 0,-1.32 0,-2 0.99,0 1.98,0 3,0 C 0,5.36 0,2.72 0,0 Z"
       fill="#cac5d8"
       transform="translate(777,530)"
       id="path65" />
    <path
       d="M 0,0 C 3,0 3,0 5.062,1.938 5.702,2.618 6.341,3.299 7,4 7.66,4.33 8.32,4.66 9,5 9,4.34 9,3.68 9,3 c 1.938,0.75 1.938,0.75 4,2 0.33,1.32 0.66,2.64 1,4 C 10.7,8.67 7.4,8.34 4,8 3.711,7.196 3.423,6.391 3.125,5.562 2,3 2,3 0,2 0,1.34 0,0.68 0,0 Z"
       fill="#d2cedf"
       transform="translate(572,856)"
       id="path66" />
    <path
       d="M 0,0 C -3.273,3.273 -7.797,3.881 -12.305,4.125 -14.204,4.125 -16.102,4.068 -18,4 -16,1 -16,1 -12.938,0.312 -8.607,-0.031 -4.341,-0.089 0,0 Z"
       fill="#d0cbdd"
       transform="translate(762,584)"
       id="path67" />
    <path
       d="M 0,0 C 0.99,0.33 1.98,0.66 3,1 2.34,3.64 1.68,6.28 1,9 0.01,9 -0.98,9 -2,9 -2,8.34 -2,7.68 -2,7 -2.66,7 -3.32,7 -4,7 -4,7.66 -4,8.32 -4,9 -4.66,9 -5.32,9 -6,9 -5.333,7.667 -4.667,6.333 -4,5 -3.67,4.278 -3.34,3.556 -3,2.812 -2,1 -2,1 0,0 Z"
       fill="#cecadc"
       transform="translate(767,559)"
       id="path68" />
    <path
       d="M 0,0 C 2,2 2,2 2,5 1.34,5 0.68,5 0,5 c 0,0.99 0,1.98 0,3 -0.66,0 -1.32,0 -2,0 -0.33,0.99 -0.66,1.98 -1,3 -0.66,0 -1.32,0 -2,0 0,-0.99 0,-1.98 0,-3 C -5.66,7.67 -6.32,7.34 -7,7 -4.667,4.667 -2.333,2.333 0,0 Z"
       fill="#cac5d8"
       transform="translate(437,368)"
       id="path69" />
    <path
       d="M 0,0 C -0.33,0.99 -0.66,1.98 -1,3 0.155,2.835 0.155,2.835 6,2 5.67,4.31 5.34,6.62 5,9 4.34,8.67 3.68,8.34 3,8 3,6.68 3,5.36 3,4 2.01,4 1.02,4 0,4 0,4.66 0,5.32 0,6 -0.99,6 -1.98,6 -3,6 -3.33,5.01 -3.66,4.02 -4,3 -5.65,3.33 -7.3,3.66 -9,4 -8.67,3.01 -8.34,2.02 -8,1 -5.291,-0.354 -2.991,-0.065 0,0 Z"
       fill="#d1cdde"
       transform="translate(451,367)"
       id="path70" />
    <path
       d="M 0,0 C 2.964,2.808 5.445,5.183 7,9 4.69,9.66 2.38,10.32 0,11 -0.66,9.68 -1.32,8.36 -2,7 -1.01,6.67 -0.02,6.34 1,6 0.649,5.381 0.299,4.762 -0.062,4.125 -0.372,3.424 -0.681,2.723 -1,2 -0.67,1.34 -0.34,0.68 0,0 Z"
       fill="#dcd8e5"
       transform="translate(795,332)"
       id="path71" />
    <path
       d="M 0,0 C 0.99,0.66 1.98,1.32 3,2 2.34,3.98 1.68,5.96 1,8 0.34,8 -0.32,8 -1,8 c 0,0.66 0,1.32 0,2 -2.97,0 -5.94,0 -9,0 0.33,-0.99 0.66,-1.98 1,-3 2.31,0 4.62,0 7,0 C 0,2.25 0,2.25 0,0 Z"
       fill="#cac6d9"
       transform="translate(758,697)"
       id="path72" />
    <path
       d="M 0,0 C 0.66,0.165 0.66,0.165 4,1 4,1.99 4,2.98 4,4 4.66,4.33 5.32,4.66 6,5 6,5.99 6,6.98 6,8 6.66,8.33 7.32,8.66 8,9 8,9.66 8,10.32 8,11 7.443,10.711 6.886,10.423 6.312,10.125 3.915,8.959 1.484,7.966 -1,7 -1,6.01 -1,5.02 -1,4 -0.34,4 0.32,4 1,4 0.67,2.68 0.34,1.36 0,0 Z"
       fill="#d4d0e0"
       transform="translate(632,815)"
       id="path73" />
    <path
       d="m 0,0 c 0.557,0.021 0.557,0.021 3.375,0.125 -0.33,0.495 -0.33,0.495 -2,3 0.99,0.165 0.99,0.165 6,1 0,0.33 0,0.66 0,1 -4.29,0 -8.58,0 -13,0 C -5.625,0.524 -4.489,0.155 0,0 Z"
       fill="#181525"
       transform="translate(614.625,726.875)"
       id="path74" />
    <path
       d="m 0,0 c 0.784,0.052 1.567,0.104 2.375,0.158 1.917,0.129 3.834,0.266 5.75,0.404 0,0.331 0,0.66 0,1 -8.188,2.096 -14.777,1.866 -23,0 0,-0.33 0,-0.659 0,-1 C -9.772,-0.538 -5.154,-0.38 0,0 Z"
       fill="#151321"
       transform="translate(736.875,711.4375)"
       id="path75" />
    <path
       d="m 0,0 c 0.33,0.66 0.66,1.32 1,2 -4.625,5.75 -4.625,5.75 -8,8 -0.188,3.625 -0.188,3.625 0,7 -3,-2 -3,-2 -3.5,-4.293 C -9.787,8.845 -7.833,7.344 -5,4.688 -4.072,3.804 -3.144,2.921 -2.188,2.012 -1.827,1.68 -1.827,1.68 0,0 Z"
       fill="#1a1728"
       transform="translate(557,615)"
       id="path76" />
    <path
       d="M 0,0 C 0,0.99 0,1.98 0,3 -0.928,2.979 -1.856,2.959 -2.812,2.938 -6,3 -6,3 -9,4 c 0,0.99 0,1.98 0,3 -1.98,0.33 -3.96,0.66 -6,1 0,-0.99 0,-1.98 0,-3 5.335,-3.18 8.703,-5 15,-5 z"
       fill="#d5d1e0"
       transform="translate(732,332)"
       id="path77" />
    <path
       d="M 0,0 C 1.98,0 3.96,0 6,0 6,4 6,4 5,7 3.062,7.812 3.062,7.812 1,8 0.34,7.34 -0.32,6.68 -1,6 -0.67,5.01 -0.34,4.02 0,3 0,2.01 0,1.02 0,0 Z"
       fill="#dbd7e5"
       transform="translate(461,857)"
       id="path78" />
    <path
       d="M 0,0 C 2.647,0.113 5.292,0.24 7.938,0.375 8.315,0.39 8.315,0.39 10.225,0.469 12.155,0.573 14.079,0.779 16,1 16.33,1.66 16.66,2.32 17,3 11.089,3.773 5.869,4.148 0,3 0,2.01 0,1.02 0,0 Z"
       fill="#dddae6"
       transform="translate(493,528)"
       id="path79" />
    <path
       d="M 0,0 C 0.763,0.309 1.526,0.619 2.312,0.938 4.188,1.679 6.087,2.362 8,3 8,3.66 8,4.32 8,5 7.34,5 6.68,5 6,5 6,5.66 6,6.32 6,7 7.32,7.33 8.64,7.66 10,8 8.35,8.33 6.7,8.66 5,9 4.161,7.879 3.329,6.753 2.5,5.625 2.036,4.999 1.572,4.372 1.094,3.727 0,2 0,2 0,0 Z"
       fill="#d0cbdd"
       transform="translate(471,793)"
       id="path80" />
    <path
       d="m 0,0 c 0.33,0 0.66,0 1,0 0,4.29 0,8.58 0,13 1.65,0.33 3.3,0.66 5,1 C 5.01,14.66 4.02,15.32 3,16 2.488,17.945 2.488,17.945 2.312,20.125 2.209,21.404 2.106,22.683 2,24 1.67,24 1.34,24 1,24 0.095,18.635 -0.123,13.497 -0.062,8.062 -0.058,7.283 -0.053,6.504 -0.049,5.701 -0.037,3.801 -0.019,1.9 0,0 Z"
       fill="#bcb6ce"
       transform="translate(439,814)"
       id="path81" />
    <path
       d="m 0,0 c -0.33,0.99 -0.66,1.98 -1,3 -1.661,0.681 -3.328,1.347 -5,2 -0.33,0.495 -0.33,0.495 -2,3 -0.99,0 -1.98,0 -3,0 0,-1.32 0,-2.64 0,-4 0.99,-0.33 1.98,-0.66 3,-1 0.33,-0.66 0.66,-1.32 1,-2 2.484,-0.828 4.352,-1 7,-1 z"
       fill="#d6d3e2"
       transform="translate(473,823)"
       id="path82" />
    <path
       d="M 0,0 C 1.32,0.66 2.64,1.32 4,2 4,3.98 4,5.96 4,8 3.01,7.67 2.02,7.34 1,7 1,6.67 1,6.34 1,6 c -1.98,0.33 -3.96,0.66 -6,1 0,-0.66 0,-1.32 0,-2 0.66,0 1.32,0 2,0 0,-0.66 0,-1.32 0,-2 0.99,0 1.98,0 3,0 C 0,2.01 0,1.02 0,0 Z"
       fill="#dad6e4"
       transform="translate(816,694)"
       id="path83" />
    <path
       d="m 0,0 c 0,0.66 0,1.32 0,2 -0.99,0 -1.98,0 -3,0 0,1.98 0,3.96 0,6 C -4.5,6.625 -4.5,6.625 -6,5 -6,4.34 -6,3.68 -6,3 -6.99,2.835 -6.99,2.835 -12,2 -8.1,-0.6 -4.526,-0.151 0,0 Z"
       fill="#ecebf1"
       transform="translate(462,362)"
       id="path84" />
    <path
       d="M 0,0 C 1.32,0.66 2.64,1.32 4,2 4,4.31 4,6.62 4,9 1.03,8.67 -1.94,8.34 -5,8 -1,7 -1,7 2,8 2,7.34 2,6.68 2,6 1.34,6 0.68,6 0,6 0,4.02 0,2.04 0,0 Z"
       fill="#d2cedf"
       transform="translate(469,860)"
       id="path85" />
    <path
       d="m 0,0 c 1.32,0 2.64,0 4,0 1.582,3.164 1.062,6.539 1,10 0,0.99 0,1.98 0,3 C 3.438,11.75 3.438,11.75 2,10 2.312,7.812 2.312,7.812 3,6 2.01,6 1.02,6 0,6 0,5.34 0,4.68 0,4 0.99,4 1.98,4 3,4 3,3.34 3,2.68 3,2 2.01,2 1.02,2 0,2 0,1.34 0,0.68 0,0 Z"
       fill="#d9d6e4"
       transform="translate(632,688)"
       id="path86" />
    <path
       d="M 0,0 C 0.99,0.66 1.98,1.32 3,2 2.67,2.66 2.34,3.32 2,4 1.361,4.124 0.721,4.247 0.062,4.375 -2,5 -2,5 -3.25,7.062 -3.498,7.702 -3.745,8.341 -4,9 c 0.99,0 1.98,0 3,0 0,0.66 0,1.32 0,2 -1.65,0 -3.3,0 -5,0 0,-0.99 0,-1.98 0,-3 C -6.66,7.67 -7.32,7.34 -8,7 -7.506,6.662 -7.013,6.325 -6.504,5.977 -5.863,5.531 -5.223,5.085 -4.562,4.625 -3.924,4.184 -3.286,3.743 -2.629,3.289 -1,2 -1,2 0,0 Z"
       fill="#d2cede"
       transform="translate(485,535)"
       id="path87" />
    <path
       d="M 0,0 C 0.66,0.66 1.32,1.32 2,2 -0.375,3.562 -0.375,3.562 -3,5 -3.66,4.67 -4.32,4.34 -5,4 c 0,-0.66 0,-1.32 0,-2 -1.98,0 -3.96,0 -6,0 0,-0.66 0,-1.32 0,-2 7.72,-1.336 7.72,-1.336 11,0 z"
       fill="#d9d5e3"
       transform="translate(501,352)"
       id="path88" />
    <path
       d="M 0,0 C 0.33,0 0.66,0 1,0 1.33,1.65 1.66,3.3 2,5 3.65,5 5.3,5 7,5 7,5.99 7,6.98 7,8 6.34,8 5.68,8 5,8 5,8.66 5,9.32 5,10 4.01,9.67 3.02,9.34 2,9 2,8.34 2,7.68 2,7 1.34,7 0.68,7 0,7 -0.33,7.66 -0.66,8.32 -1,9 -0.67,6.03 -0.34,3.06 0,0 Z"
       fill="#dcd8e5"
       transform="translate(532,808)"
       id="path89" />
    <path
       d="m 0,0 c 3.3,0 6.6,0 10,0 0,0.66 0,1.32 0,2 C 6.17,3.802 3.219,4.196 -1,4 -0.67,2.68 -0.34,1.36 0,0 Z"
       fill="#231f35"
       transform="translate(562,549)"
       id="path90" />
    <path
       d="m 0,0 c 0,0.66 0,1.32 0,2 -0.66,0 -1.32,0 -2,0 0,0.66 0,1.32 0,2 -3.312,0.688 -3.312,0.688 -7,1 -1.938,-1.438 -1.938,-1.438 -3,-3 4.12,-1.292 7.668,-2.263 12,-2 z"
       fill="#cec9db"
       transform="translate(717,590)"
       id="path91" />
    <path
       d="M 0,0 C 0,1.65 0,3.3 0,5 -1.485,5.165 -1.485,5.165 -9,6 -5.559,1.208 -5.559,1.208 -2.812,0.188 -1,0 -1,0 0,0 Z"
       fill="#e5e2ec"
       transform="translate(514,867)"
       id="path92" />
    <path
       d="M 0,0 C 0.99,0 1.98,0 3,0 3,2.31 3,4.62 3,7 2.01,7.33 1.02,7.66 0,8 0.66,9.32 1.32,10.64 2,12 0.68,11.67 -0.64,11.34 -2,11 -1.424,8.614 -0.778,6.333 0,4 0,2.68 0,1.36 0,0 Z"
       fill="#cfcadc"
       transform="translate(644,827)"
       id="path93" />
    <path
       d="M 0,0 C 2,3 2,3 2,7 2.99,7 3.98,7 5,7 5,7.99 5,8.98 5,10 1.225,8.909 -1.47,8.092 -4,5 -2.68,3.35 -1.36,1.7 0,0 Z"
       fill="#e0dde8"
       transform="translate(460,857)"
       id="path94" />
    <path
       d="M 0,0 C 2.209,3.314 2.225,4.345 2.125,8.188 2.107,9.089 2.089,9.99 2.07,10.918 2.059,11.262 2.059,11.262 2,13 1.67,13 1.34,13 1,13 1,10.36 1,7.72 1,5 -0.485,5.165 -0.485,5.165 -8,6 -7.67,5.01 -7.34,4.02 -7,3 -4.69,3 -2.38,3 0,3 0,2.01 0,1.02 0,0 Z"
       fill="#d0cbdd"
       transform="translate(490,789)"
       id="path95" />
    <path
       d="M 0,0 C 0,0.66 0,1.32 0,2 1.32,1.67 2.64,1.34 4,1 3.67,2.98 3.34,4.96 3,7 2.67,6.01 2.34,5.02 2,4 0.35,4.33 -1.3,4.66 -3,5 -2.67,4.34 -2.34,3.68 -2,3 -3.98,3.33 -5.96,3.66 -8,4 -5.299,1.176 -4.056,0 0,0 Z"
       fill="#dad7e4"
       transform="translate(816,788)"
       id="path96" />
    <path
       d="m 0,0 c -5.329,1.701 -10.431,2.52 -16,3 -0.33,-0.66 -0.66,-1.32 -1,-2 2.269,-0.363 4.541,-0.715 6.812,-1.062 1.265,-0.198 2.53,-0.395 3.833,-0.598 C -3,-1 -3,-1 0,0 Z"
       fill="#c3bdd3"
       transform="translate(743,588)"
       id="path97" />
    <path
       d="M 0,0 C 1.32,0 2.64,0 4,0 4,0.66 4,1.32 4,2 4.99,2 5.98,2 7,2 6.67,2.99 6.34,3.98 6,5 5.01,5 4.02,5 3,5 2.67,5.99 2.34,6.98 2,8 2,6.68 2,5.36 2,4 1.34,4 0.68,4 0,4 -0.33,3.01 -0.66,2.02 -1,1 -0.67,0.67 -0.34,0.34 0,0 Z"
       fill="#d2cede"
       transform="translate(720,828)"
       id="path98" />
    <path
       d="M 0,0 C 0.33,0 0.66,0 1,0 1,1.65 1,3.3 1,5 1.99,5 2.98,5 4,5 4.33,6.32 4.66,7.64 5,9 3.02,9.33 1.04,9.66 -1,10 -0.67,6.7 -0.34,3.4 0,0 Z"
       fill="#dad6e4"
       transform="translate(441,804)"
       id="path99" />
    <path
       d="m 0,0 c 0.33,0.99 0.66,1.98 1,3 -0.66,0 -1.32,0 -2,0 0,0.99 0,1.98 0,3 -0.99,0 -1.98,0 -3,0 0,0.66 0,1.32 0,2 C -4.66,8 -5.32,8 -6,8 -6.66,6.35 -7.32,4.7 -8,3 -6.866,2.691 -5.731,2.381 -4.562,2.062 -1,1 -1,1 0,0 Z"
       fill="#cbc6d9"
       transform="translate(806,796)"
       id="path100" />
    <path
       d="M 0,0 C 0.99,0.33 1.98,0.66 3,1 3.33,2.98 3.66,4.96 4,7 3.01,7 2.02,7 1,7 0.67,7.99 0.34,8.98 0,10 -1.125,3.375 -1.125,3.375 0,0 Z"
       fill="#d9d6e4"
       transform="translate(491,621)"
       id="path101" />
    <path
       d="m 0,0 c 0.99,0 1.98,0 3,0 0.293,6.055 0.293,6.055 0,8 -3,2 -3,2 -6,2 0.33,-0.99 0.66,-1.98 1,-3 0.66,0 1.32,0 2,0 C 0,4.69 0,2.38 0,0 Z"
       fill="#d0ccdd"
       transform="translate(795,614)"
       id="path102" />
    <path
       d="M 0,0 C 1.938,0.688 1.938,0.688 4,2 4.75,4.625 4.75,4.625 5,7 2.69,6.67 0.38,6.34 -2,6 -2,5.34 -2,4.68 -2,4 -1.34,4 -0.68,4 0,4 0,2.68 0,1.36 0,0 Z"
       fill="#dcd8e5"
       transform="translate(654,555)"
       id="path103" />
    <path
       d="M 0,0 C -0.33,1.32 -0.66,2.64 -1,4 -2.667,4 -4.333,4 -6,4 -6.33,4.99 -6.66,5.98 -7,7 -7.66,7 -8.32,7 -9,7 -8.75,4.625 -8.75,4.625 -8,2 -5.102,-0.099 -3.716,0 0,0 Z"
       fill="#dfdce8"
       transform="translate(763,501)"
       id="path104" />
    <path
       d="m 0,0 c 3.856,1.139 7.065,2.178 10,5 0,0.99 0,1.98 0,3 C 9.34,8 8.68,8 8,8 7.67,7.34 7.34,6.68 7,6 4.438,5.375 4.438,5.375 2,5 2,4.34 2,3.68 2,3 1.34,3 0.68,3 0,3 0,2.01 0,1.02 0,0 Z"
       fill="#d3cfdf"
       transform="translate(761,367)"
       id="path105" />
    <path
       d="m 0,0 c 0.33,0.66 0.66,1.32 1,2 -5.05,1.036 -9.874,1.103 -15,1 0,-0.66 0,-1.32 0,-2 4.724,-0.652 9.22,-1.12 14,-1 z"
       fill="#dfdce8"
       transform="translate(681,326)"
       id="path106" />
    <path
       d="M 0,0 C 2.915,1.074 4.778,1.778 7,4 6.608,4.041 6.608,4.041 4.625,4.25 2,5 2,5 0.688,7.062 0.574,7.382 0.574,7.382 0,9 -0.66,9 -1.32,9 -2,9 -2.33,7.35 -2.66,5.7 -3,4 -2.01,3.67 -1.02,3.34 0,3 0,2.01 0,1.02 0,0 Z"
       fill="#dcd9e6"
       transform="translate(779,319)"
       id="path107" />
    <path
       d="M 0,0 C 0.33,0.66 0.66,1.32 1,2 2.32,2 3.64,2 5,2 5,3.65 5,5.3 5,7 5.99,7.33 6.98,7.66 8,8 6.02,8 4.04,8 2,8 1.897,7.361 1.794,6.721 1.688,6.062 1.461,5.382 1.234,4.701 1,4 0.01,3.67 -0.98,3.34 -2,3 -1.34,2.01 -0.68,1.02 0,0 Z"
       fill="#d9d5e3"
       transform="translate(512,864)"
       id="path108" />
    <path
       d="M 0,0 C 0.99,0 1.98,0 3,0 3,1.98 3,3.96 3,6 1.35,6.33 -0.3,6.66 -2,7 -1.125,1.125 -1.125,1.125 0,0 Z"
       fill="#d6d2e1"
       transform="translate(655,695)"
       id="path109" />
    <path
       d="M 0,0 C 0.66,0 1.32,0 2,0 2.66,1.65 3.32,3.3 4,5 1.094,6.257 -0.796,7 -4,7 -4,6.01 -4,5.02 -4,4 -3.01,3.67 -2.02,3.34 -1,3 -0.67,2.01 -0.34,1.02 0,0 Z"
       fill="#cecadc"
       transform="translate(518,633)"
       id="path110" />
    <path
       d="m 0,0 c 0.66,0 1.32,0 2,0 0.33,0.99 0.66,1.98 1,3 0.66,0.66 1.32,1.32 2,2 -6.75,2 -6.75,2 -9,2 0,-0.66 0,-1.32 0,-2 0.66,0 1.32,0 2,0 C -2.33,3.68 -2.66,2.36 -3,1 -2.01,1 -1.02,1 0,1 0,0.67 0,0.34 0,0 Z"
       fill="#dedbe7"
       transform="translate(752,569)"
       id="path111" />
    <path
       d="M 0,0 C 0,1.32 0,2.64 0,4 0.66,4.33 1.32,4.66 2,5 2,5.66 2,6.32 2,7 -1.083,5.801 -4.063,4.523 -7,3 -7,2.34 -7,1.68 -7,1 -4.509,0.313 -2.621,0 0,0 Z"
       fill="#dedbe7"
       transform="translate(754,551)"
       id="path112" />
    <path
       d="M 0,0 C 0.99,0 1.98,0 3,0 3.33,1.98 3.66,3.96 4,6 1.36,6 -1.28,6 -4,6 -2.188,3 -2.188,3 0,0 Z"
       fill="#ebeaf1"
       transform="translate(777,542)"
       id="path113" />
    <path
       d="M 0,0 C 0.66,0 1.32,0 2,0 2,1.65 2,3.3 2,5 2.66,5 3.32,5 4,5 4,5.66 4,6.32 4,7 0.37,6.67 -3.26,6.34 -7,6 -4.681,4.454 -2.494,3.204 0,2 0,1.34 0,0.68 0,0 Z"
       fill="#dbd8e5"
       transform="translate(720,532)"
       id="path114" />
    <path
       d="M 0,0 C -0.66,1.32 -1.32,2.64 -2,4 -2.866,3.979 -3.733,3.959 -4.625,3.938 -7.859,3.997 -10.828,4.396 -14,5 -9.556,1.379 -5.786,-0.331 0,0 Z"
       fill="#d6d2e1"
       transform="translate(454,362)"
       id="path115" />
    <path
       d="M 0,0 C 0.33,0.66 0.66,1.32 1,2 1.66,2 2.32,2 3,2 3,2.66 3,3.32 3,4 1.68,4 0.36,4 -1,4 -1,5.65 -1,7.3 -1,9 -1.99,9 -2.98,9 -4,9 -4,7.35 -4,5.7 -4,4 -3.01,3.67 -2.02,3.34 -1,3 -0.67,2.01 -0.34,1.02 0,0 Z"
       fill="#d9d6e4"
       transform="translate(621,846)"
       id="path116" />
    <path
       d="m 0,0 c -0.33,0.99 -0.66,1.98 -1,3 -1.485,0.165 -1.485,0.165 -9,1 0,-0.99 0,-1.98 0,-3 3.473,-1.158 6.361,-1.069 10,-1 z"
       fill="#cdc8db"
       transform="translate(696,696)"
       id="path117" />
    <path
       d="M 0,0 C 0,0.66 0,1.32 0,2 1.32,2 2.64,2 4,2 4,1.34 4,0.68 4,0 5.65,0 7.3,0 9,0 8.67,0.99 8.34,1.98 8,3 6.417,3.054 4.834,3.093 3.25,3.125 2.368,3.148 1.487,3.171 0.578,3.195 -2.114,2.991 -3.699,2.366 -6,1 -3.924,0.447 -2.156,0 0,0 Z"
       fill="#d4d0e0"
       transform="translate(471,528)"
       id="path118" />
    <path
       d="M 0,0 C 0,0.33 0,0.66 0,1 -0.949,1.144 -1.898,1.289 -2.875,1.438 -6,2 -6,2 -8,3 c 0,0.66 0,1.32 0,2 -0.99,0 -1.98,0 -3,0 0,-0.99 0,-1.98 0,-3 -1.65,0 -3.3,0 -5,0 0,-0.33 0,-0.66 0,-1 5.407,-0.772 10.539,-1.098 16,-1 z"
       fill="#cfcbdc"
       transform="translate(597,338)"
       id="path119" />
    <path
       d="M 0,0 C 1.32,0.66 2.64,1.32 4,2 4,2.66 4,3.32 4,4 3.01,4 2.02,4 1,4 1.33,5.32 1.66,6.64 2,8 1.01,8 0.02,8 -1,8 -1.625,5.688 -1.625,5.688 -2,3 -1.34,2.01 -0.68,1.02 0,0 Z"
       fill="#d8d5e3"
       transform="translate(744,645)"
       id="path120" />
    <path
       d="M 0,0 C 1.65,0 3.3,0 5,0 5.75,1.75 5.75,1.75 6,4 4.062,6.25 4.062,6.25 2,8 1.34,5.36 0.68,2.72 0,0 Z"
       fill="#d1ccdd"
       transform="translate(493,636)"
       id="path121" />
    <path
       d="M 0,0 C 0.99,0.165 0.99,0.165 6,1 6,2.98 6,4.96 6,7 5.01,7.33 4.02,7.66 3,8 3.33,6.68 3.66,5.36 4,4 2.68,3.34 1.36,2.68 0,2 0,1.34 0,0.68 0,0 Z"
       fill="#cac5d9"
       transform="translate(572,592)"
       id="path122" />
    <path
       d="M 0,0 C 0.33,1.65 0.66,3.3 1,5 -2.75,6.125 -2.75,6.125 -5,5 -5,3 -5,3 -4,2 -4.99,1.67 -5.98,1.34 -7,1 -4.537,-0.231 -2.72,-0.072 0,0 Z"
       fill="#eae8f0"
       transform="translate(793,590)"
       id="path123" />
    <path
       d="M 0,0 C 1.32,0.66 2.64,1.32 4,2 4,3.65 4,5.3 4,7 3.34,7 2.68,7 2,7 1.67,7.99 1.34,8.98 1,10 0.639,8.523 0.286,7.043 -0.062,5.562 -0.26,4.739 -0.457,3.915 -0.66,3.066 -0.716,2.725 -0.716,2.725 -1,1 -0.67,0.67 -0.34,0.34 0,0 Z"
       fill="#d7d3e2"
       transform="translate(452,511)"
       id="path124" />
    <path
       d="M 0,0 C -0.33,0.536 -0.66,1.072 -1,1.625 -2.227,4.539 -2.142,6.869 -2,10 -2.99,10.33 -3.98,10.66 -5,11 -5.367,3.534 -5.367,3.534 -3.625,1 -2,0 -2,0 0,0 Z"
       fill="#dbd8e5"
       transform="translate(517,359)"
       id="path125" />
    <path
       d="M 0,0 C 0.99,0 1.98,0 3,0 3.33,0.66 3.66,1.32 4,2 4.99,2.33 5.98,2.66 7,3 7,3.99 7,4.98 7,6 5.02,6 3.04,6 1,6 0.67,4.02 0.34,2.04 0,0 Z"
       fill="#d3cfdf"
       transform="translate(598,849)"
       id="path126" />
    <path
       d="M 0,0 C 1.32,0.33 2.64,0.66 4,1 4,1.66 4,2.32 4,3 4.99,3.33 5.98,3.66 7,4 1.72,4 -3.56,4 -9,4 -9,3.67 -9,3.34 -9,3 -7.515,2.835 -7.515,2.835 0,2 0,1.34 0,0.68 0,0 Z"
       fill="#ebe9f0"
       transform="translate(743,705)"
       id="path127" />
    <path
       d="M 0,0 C 0,0.66 0,1.32 0,2 -0.66,2.66 -1.32,3.32 -2,4 -2.625,6.125 -2.625,6.125 -3,8 -4.65,6.02 -6.3,4.04 -8,2 -2.25,0 -2.25,0 0,0 Z"
       fill="#d7d3e2"
       transform="translate(748,618)"
       id="path128" />
    <path
       d="M 0,0 C 0.99,0 1.98,0 3,0 3.33,0.66 3.66,1.32 4,2 3.062,4.125 3.062,4.125 2,6 0.35,5.67 -1.3,5.34 -3,5 -3,4.01 -3,3.02 -3,2 -2.01,2 -1.02,2 0,2 0,1.34 0,0.68 0,0 Z"
       fill="#dedbe7"
       transform="translate(595,868)"
       id="path129" />
    <path
       d="M 0,0 C 0.99,0.33 1.98,0.66 3,1 3.333,2.333 3.667,3.667 4,5 4.99,5.33 5.98,5.66 7,6 6.67,6.66 6.34,7.32 6,8 5.01,7.34 4.02,6.68 3,6 3,6.66 3,7.32 3,8 2.34,8 1.68,8 1,8 0.67,5.36 0.34,2.72 0,0 Z"
       fill="#d6d2e1"
       transform="translate(471,800)"
       id="path130" />
    <path
       d="M 0,0 C 1.482,0.254 2.961,0.529 4.438,0.812 4.849,0.888 4.849,0.888 6.934,1.27 7.275,1.39 7.275,1.39 9,2 9.33,2.99 9.66,3.98 10,5 9.01,5 8.02,5 7,5 6.67,5.66 6.34,6.32 6,7 1.125,2.25 1.125,2.25 0,0 Z"
       fill="#d1cdde"
       transform="translate(805,755)"
       id="path131" />
    <path
       d="M 0,0 C 0.99,0 1.98,0 3,0 3.66,1.98 4.32,3.96 5,6 3.35,6.33 1.7,6.66 0,7 0,4.69 0,2.38 0,0 Z"
       fill="#dddae6"
       transform="translate(648,689)"
       id="path132" />
    <path
       d="M 0,0 C 0.66,0.33 1.32,0.66 2,1 1.01,2.98 0.02,4.96 -1,7 -0.01,7.33 0.98,7.66 2,8 2,8.66 2,9.32 2,10 1.175,9.67 1.175,9.67 -3,8 -3.369,3.446 -3.369,3.446 -1.5,1.188 -1.005,0.796 -0.51,0.404 0,0 Z"
       fill="#d4d0e0"
       transform="translate(758,660)"
       id="path133" />
    <path
       d="M 0,0 C 0.99,0.33 1.98,0.66 3,1 3,3.31 3,5.62 3,8 3.66,8 4.32,8 5,8 5,8.99 5,9.98 5,11 4.01,11 3.02,11 2,11 1.34,7.37 0.68,3.74 0,0 Z"
       fill="#d5d2e1"
       transform="translate(792,639)"
       id="path134" />
    <path
       d="M 0,0 C -0.66,3.3 -1.32,6.6 -2,10 -2.33,9.34 -2.66,8.68 -3,8 -3.66,8 -4.32,8 -5,8 -5,7.34 -5,6.68 -5,6 -4.01,6 -3.02,6 -2,6 -2,5.34 -2,4.68 -2,4 -3.32,3.67 -4.64,3.34 -6,3 -2.25,0 -2.25,0 0,0 Z"
       fill="#c9c4d8"
       transform="translate(781,565)"
       id="path135" />
    <path
       d="M 0,0 C 2.169,0.506 4,1 6,2 6,2.66 6,3.32 6,4 3.36,4.33 0.72,4.66 -2,5 -2,4.01 -2,3.02 -2,2 -1.34,2 -0.68,2 0,2 0,1.34 0,0.68 0,0 Z"
       fill="#dedbe7"
       transform="translate(720,522)"
       id="path136" />
    <path
       d="M 0,0 C 2.64,0 5.28,0 8,0 8,1.32 8,2.64 8,4 7.34,4 6.68,4 6,4 6,3.34 6,2.68 6,2 3.69,2.33 1.38,2.66 -1,3 -0.67,2.01 -0.34,1.02 0,0 Z"
       fill="#ddd9e6"
       transform="translate(742,337)"
       id="path137" />
    <path
       d="M 0,0 C 0.66,0 1.32,0 2,0 2.103,0.639 2.206,1.279 2.312,1.938 2.539,2.618 2.766,3.299 3,4 3.99,4.33 4.98,4.66 6,5 5.34,6.65 4.68,8.3 4,10 1.203,7.932 0.973,6.856 0.312,3.312 0.209,2.219 0.106,1.126 0,0 Z"
       fill="#d9d6e4"
       transform="translate(805,806)"
       id="path138" />
    <path
       d="M 0,0 C 6.055,-0.195 6.055,-0.195 8,0 8.66,0.66 9.32,1.32 10,2 7.261,3.37 5.029,3.126 2,3 1.34,2.67 0.68,2.34 0,2 0,1.34 0,0.68 0,0 Z"
       fill="#dad6e4"
       transform="translate(470,775)"
       id="path139" />
    <path
       d="M 0,0 C 0,0.33 0,0.66 0,1 -3,2 -6,3 -9,4 -9,3.01 -9,2.02 -9,1 -9.66,0.67 -10.32,0.34 -11,0 -6.95,-1.35 -4.208,-0.621 0,0 Z"
       fill="#242037"
       transform="translate(639,636)"
       id="path140" />
    <path
       d="M 0,0 C 1.98,0 3.96,0 6,0 5.67,1.98 5.34,3.96 5,6 4.01,6 3.02,6 2,6 2,5.01 2,4.02 2,3 1.34,3 0.68,3 0,3 0,2.01 0,1.02 0,0 Z"
       fill="#dad6e4"
       transform="translate(478,562)"
       id="path141" />
    <path
       d="m 0,0 c 3.3,0 6.6,0 10,0 0,0.99 0,1.98 0,3 C 6.37,2.67 2.74,2.34 -1,2 -0.67,1.34 -0.34,0.68 0,0 Z"
       fill="#1b192a"
       transform="translate(646,536)"
       id="path142" />
    <path
       d="M 0,0 C 3,3.75 3,3.75 3,6 1.35,6.33 -0.3,6.66 -2,7 -2.33,5.02 -2.66,3.04 -3,1 -2.01,0.67 -1.02,0.34 0,0 Z"
       fill="#dfdce8"
       transform="translate(520,392)"
       id="path143" />
    <path
       d="M 0,0 C -0.33,1.32 -0.66,2.64 -1,4 -2.98,4.33 -4.96,4.66 -7,5 -7.33,3.68 -7.66,2.36 -8,1 c 0.33,0.66 0.66,1.32 1,2 0.66,0 1.32,0 2,0 0,-0.66 0,-1.32 0,-2 2,-1 2,-1 5,-1 z"
       fill="#cfcbdc"
       transform="translate(789,379)"
       id="path144" />
    <path
       d="M 0,0 C 1.32,0 2.64,0 4,0 2.63,3.161 2.011,3.993 -1,6 -1.99,5.67 -2.98,5.34 -4,5 c 0.66,0 1.32,0 2,0 0.66,-1.65 1.32,-3.3 2,-5 z"
       fill="#dad7e4"
       transform="translate(687,887)"
       id="path145" />
    <path
       d="M 0,0 C 2.125,4.625 2.125,4.625 1,8 0.34,7.01 -0.32,6.02 -1,5 -3.125,3.812 -3.125,3.812 -5,3 -5,2.34 -5,1.68 -5,1 -3,0 -3,0 0,0 Z"
       fill="#eae8f0"
       transform="translate(599,851)"
       id="path146" />
    <path
       d="M 0,0 C 1.98,0.66 3.96,1.32 6,2 6,3.32 6,4.64 6,6 5.34,6 4.68,6 4,6 4,5.01 4,4.02 4,3 2.02,3.33 0.04,3.66 -2,4 -1.34,2.68 -0.68,1.36 0,0 Z"
       fill="#c1bbd2"
       transform="translate(449,788)"
       id="path147" />
    <path
       d="M 0,0 C 1.32,0.66 2.64,1.32 4,2 3.34,2.66 2.68,3.32 2,4 4.31,4.33 6.62,4.66 9,5 9,5.33 9,5.66 9,6 2.945,6.195 2.945,6.195 1,6 0.34,5.34 -0.32,4.68 -1,4 -0.625,1.875 -0.625,1.875 0,0 Z"
       fill="#221f34"
       transform="translate(622,764)"
       id="path148" />
    <path
       d="M 0,0 C -0.66,1.32 -1.32,2.64 -2,4 -0.68,4.33 0.64,4.66 2,5 0,6 0,6 -1.945,5.441 -2.665,5.151 -3.384,4.861 -4.125,4.562 -4.849,4.275 -5.574,3.988 -6.32,3.691 -6.875,3.463 -7.429,3.235 -8,3 -7,1 -7,1 -4.562,-0.188 -2,-1 -2,-1 0,0 Z"
       fill="#26223a"
       transform="translate(820,751)"
       id="path149" />
    <path
       d="M 0,0 C 1.884,3.265 2.493,6.281 3,10 2.01,10.33 1.02,10.66 0,11 0,10.01 0,9.02 0,8 -0.66,8 -1.32,8 -2,8 -1.34,5.36 -0.68,2.72 0,0 Z"
       fill="#c5bfd5"
       transform="translate(806,635)"
       id="path150" />
    <path
       d="M 0,0 C 0.66,0 1.32,0 2,0 5,5.75 5,5.75 5,8 3.68,8 2.36,8 1,8 0.67,5.36 0.34,2.72 0,0 Z"
       fill="#d2cede"
       transform="translate(772,590)"
       id="path151" />
    <path
       d="M 0,0 C 0.99,0 1.98,0 3,0 3,0.99 3,1.98 3,3 3.66,3.33 4.32,3.66 5,4 2,6 2,6 -0.188,5.625 -0.786,5.419 -1.384,5.212 -2,5 -1.34,3.35 -0.68,1.7 0,0 Z"
       fill="#d9d5e3"
       transform="translate(429,376)"
       id="path152" />
    <path
       d="M 0,0 C -0.66,1.98 -1.32,3.96 -2,6 -3.32,5.34 -4.64,4.68 -6,4 -5.67,3.01 -5.34,2.02 -5,1 -3,0 -3,0 0,0 Z"
       fill="#dad7e4"
       transform="translate(815,803)"
       id="path153" />
    <path
       d="M 0,0 C 0.99,0 1.98,0 3,0 3,0.66 3,1.32 3,2 3.66,2 4.32,2 5,2 5,2.66 5,3.32 5,4 0.529,8 0.529,8 -2,8 -1.002,5.007 -0.248,4.052 2,2 1.34,2 0.68,2 0,2 0,1.34 0,0.68 0,0 Z"
       fill="#cbc7da"
       transform="translate(779,617)"
       id="path154" />
    <path
       d="M 0,0 C 0.66,0.165 0.66,0.165 4,1 3.34,2.65 2.68,4.3 2,6 1.01,5.67 0.02,5.34 -1,5 -0.67,3.35 -0.34,1.7 0,0 Z"
       fill="#dddae6"
       transform="translate(761,559)"
       id="path155" />
    <path
       d="M 0,0 C 0.99,0.33 1.98,0.66 3,1 2.67,1.66 2.34,2.32 2,3 3.32,3.33 4.64,3.66 6,4 4.515,4.165 4.515,4.165 -3,5 -1,1 -1,1 0,0 Z"
       fill="#dddae6"
       transform="translate(510,456)"
       id="path156" />
    <path
       d="M 0,0 C 1.98,0 3.96,0 6,0 6.33,0.66 6.66,1.32 7,2 6.01,2.99 5.02,3.98 4,5 3.67,4.01 3.34,3.02 3,2 2.01,2 1.02,2 0,2 0,1.34 0,0.68 0,0 Z"
       fill="#eae8f0"
       transform="translate(467,415)"
       id="path157" />
    <path
       d="m 0,0 c 0.402,0.01 0.402,0.01 2.438,0.062 0,1.65 0,3.301 0,5 -1.65,0.33 -3.3,0.661 -5,1 -0.383,-1.656 -0.714,-3.324 -1,-5 1,-1 1,-1 3.562,-1.062 z"
       fill="#e0dee9"
       transform="translate(576.5625,341.9375)"
       id="path158" />
    <path
       d="M 0,0 C 0.66,0 1.32,0 2,0 2,0.99 2,1.98 2,3 2.99,3.165 2.99,3.165 8,4 8,4.66 8,5.32 8,6 6.02,6 4.04,6 2,6 1.34,4.02 0.68,2.04 0,0 Z"
       fill="#d6d2e1"
       transform="translate(766,817)"
       id="path159" />
    <path
       d="M 0,0 C 1.875,0.312 1.875,0.312 4,1 4.66,1.99 5.32,2.98 6,4 5.618,4.072 5.618,4.072 3.688,4.438 1,5 1,5 -2,6 -2,5.34 -2,4.68 -2,4 -1.34,4 -0.68,4 0,4 0,2.68 0,1.36 0,0 Z"
       fill="#beb8d0"
       transform="translate(729,790)"
       id="path160" />
    <path
       d="M 0,0 C 0.66,0 1.32,0 2,0 1.67,2.97 1.34,5.94 1,9 0.34,9 -0.32,9 -1,9 -1.81,6.085 -2.218,4.539 -1.062,1.688 -0.712,1.131 -0.361,0.574 0,0 Z"
       fill="#c7c2d6"
       transform="translate(681,694)"
       id="path161" />
    <path
       d="M 0,0 C 0,1.32 0,2.64 0,4 -3.38,3.462 -6.687,2.857 -10,2 -8.712,1.47 -7.42,0.951 -6.125,0.438 -5.406,0.147 -4.686,-0.143 -3.945,-0.441 -2,-1 -2,-1 0,0 Z"
       fill="#cfcbdc"
       transform="translate(686,679)"
       id="path162" />
    <path
       d="M 0,0 C 0.66,0.33 1.32,0.66 2,1 2,1.66 2,2.32 2,3 2.66,3.33 3.32,3.66 4,4 1.69,4.33 -0.62,4.66 -3,5 -2.625,3.062 -2.625,3.062 -2,1 -1.34,0.67 -0.68,0.34 0,0 Z"
       fill="#e0dde8"
       transform="translate(470,548)"
       id="path163" />
    <path
       d="M 0,0 C 0.66,0 1.32,0 2,0 2,0.66 2,1.32 2,2 3.98,2 5.96,2 8,2 8,2.99 8,3.98 8,5 6.02,5.33 4.04,5.66 2,6 1.34,4.02 0.68,2.04 0,0 Z"
       fill="#dad6e4"
       transform="translate(441,491)"
       id="path164" />
    <path
       d="M 0,0 C 0.66,0 1.32,0 2,0 2,0.66 2,1.32 2,2 3.32,1.67 4.64,1.34 6,1 6,2.32 6,3.64 6,5 3.69,4.34 1.38,3.68 -1,3 -0.67,2.01 -0.34,1.02 0,0 Z"
       fill="#d2cedf"
       transform="translate(450,488)"
       id="path165" />
    <path
       d="M 0,0 C 1.98,0 3.96,0 6,0 6,0.66 6,1.32 6,2 5.01,2.33 4.02,2.66 3,3 3,3.99 3,4.98 3,6 2.01,5.67 1.02,5.34 0,5 0,3.35 0,1.7 0,0 Z"
       fill="#dcd8e5"
       transform="translate(684,355)"
       id="path166" />
    <path
       d="M 0,0 C 1.32,0.33 2.64,0.66 4,1 3.34,2.32 2.68,3.64 2,5 0.02,5 -1.96,5 -4,5 -3.01,4.34 -2.02,3.68 -1,3 -0.67,2.01 -0.34,1.02 0,0 Z"
       fill="#c3bed4"
       transform="translate(685,928)"
       id="path167" />
    <path
       d="M 0,0 C 0.99,0.33 1.98,0.66 3,1 3,1.66 3,2.32 3,3 3.66,3.66 4.32,4.32 5,5 2.03,5 -0.94,5 -4,5 -4,4.34 -4,3.68 -4,3 -2.35,3 -0.7,3 1,3 0.67,2.01 0.34,1.02 0,0 Z"
       fill="#dddae6"
       transform="translate(728,800)"
       id="path168" />
    <path
       d="m 0,0 c 0.66,0 1.32,0 2,0 -1.204,2.494 -2.454,4.681 -4,7 -0.99,0 -1.98,0 -3,0 0.33,-0.99 0.66,-1.98 1,-3 0.66,0 1.32,0 2,0 0.66,-1.32 1.32,-2.64 2,-4 z"
       fill="#d2cdde"
       transform="translate(795,788)"
       id="path169" />
    <path
       d="M 0,0 C 0.99,0.165 0.99,0.165 6,1 6,2.32 6,3.64 6,5 4.68,4.67 3.36,4.34 2,4 2,3.34 2,2.68 2,2 1.34,2 0.68,2 0,2 0,1.34 0,0.68 0,0 Z"
       fill="#cac6d9"
       transform="translate(765,702)"
       id="path170" />
    <path
       d="M 0,0 C 0.825,0.33 0.825,0.33 5,2 5,3.65 5,5.3 5,7 4.01,7 3.02,7 2,7 2,5.35 2,3.7 2,2 1.34,2 0.68,2 0,2 0,1.34 0,0.68 0,0 Z"
       fill="#dfdce8"
       transform="translate(568,700)"
       id="path171" />
    <path
       d="M 0,0 C 0.66,0.33 1.32,0.66 2,1 1.526,1.351 1.051,1.701 0.562,2.062 -1.679,4.842 -1.671,7.514 -2,11 -4,8 -4,8 -3.812,5.5 -2.956,2.863 -2.11,1.743 0,0 Z"
       fill="#dfdce8"
       transform="translate(480,574)"
       id="path172" />
    <path
       d="M 0,0 C -0.66,1.65 -1.32,3.3 -2,5 -6,5 -6,5 -8,4 -3.375,0 -3.375,0 0,0 Z"
       fill="#dddae6"
       transform="translate(479,543)"
       id="path173" />
    <path
       d="M 0,0 C 0.825,0.165 0.825,0.165 5,1 5,1.66 5,2.32 5,3 4.34,3 3.68,3 3,3 3,3.99 3,4.98 3,6 2.01,6 1.02,6 0,6 0,4.02 0,2.04 0,0 Z"
       fill="#d8d4e3"
       transform="translate(644,334)"
       id="path174" />
    <path
       d="M 0,0 C 1.98,0 3.96,0 6,0 5.67,1.98 5.34,3.96 5,6 4.34,6 3.68,6 3,6 2.01,4.02 1.02,2.04 0,0 Z"
       fill="#ddd9e6"
       transform="translate(714,755)"
       id="path175" />
    <path
       d="M 0,0 C 2.64,0 5.28,0 8,0 5.688,2.062 5.688,2.062 3,4 2.01,3.67 1.02,3.34 0,3 0,2.01 0,1.02 0,0 Z"
       fill="#beb8d0"
       transform="translate(583,590)"
       id="path176" />
    <path
       d="M 0,0 C 3.125,-0.188 3.125,-0.188 6,0 6,0.99 6,1.98 6,3 3.36,3 0.72,3 -2,3 -1.34,2.01 -0.68,1.02 0,0 Z"
       fill="#d5d1e0"
       transform="translate(746,585)"
       id="path177" />
    <path
       d="M 0,0 C 1.32,0 2.64,0 4,0 4,1.667 4,3.333 4,5 2.35,5 0.7,5 -1,5 -0.67,3.35 -0.34,1.7 0,0 Z"
       fill="#e0dde9"
       transform="translate(479,557)"
       id="path178" />
    <path
       d="M 0,0 C 1.65,0 3.3,0 5,0 4.67,1.32 4.34,2.64 4,4 2.68,4.33 1.36,4.66 0,5 0,3.333 0,1.667 0,0 Z"
       fill="#e0dee9"
       transform="translate(754,439)"
       id="path179" />
    <path
       d="M 0,0 C 0.66,0 1.32,0 2,0 3.562,2.812 3.562,2.812 5,6 4.67,6.99 4.34,7.98 4,9 1.314,6.314 0.94,3.624 0,0 Z"
       fill="#beb9d0"
       transform="translate(602,857)"
       id="path180" />
    <path
       d="M 0,0 C 0.66,0 1.32,0 2,0 2,1.65 2,3.3 2,5 1.34,5 0.68,5 0,5 -0.33,5.99 -0.66,6.98 -1,8 -1.625,5.688 -1.625,5.688 -2,3 -1.34,2.01 -0.68,1.02 0,0 Z"
       fill="#2a2641"
       transform="translate(719,833)"
       id="path181" />
    <path
       d="m 0,0 c 0.66,0 1.32,0 2,0 0,0.99 0,1.98 0,3 -4.222,3 -4.222,3 -7,3 0,-0.99 0,-1.98 0,-3 1.32,0 2.64,0 4,0 0.33,-0.99 0.66,-1.98 1,-3 z"
       fill="#dfdce7"
       transform="translate(710,824)"
       id="path182" />
    <path
       d="m 0,0 c -3.75,2 -3.75,2 -6,2 0,0.66 0,1.32 0,2 -2.31,-0.33 -4.62,-0.66 -7,-1 0,-0.33 0,-0.66 0,-1 8.429,-2.286 8.429,-2.286 13,-2 z"
       fill="#c1bcd2"
       transform="translate(753,711)"
       id="path183" />
    <path
       d="M 0,0 C 0.33,0 0.66,0 1,0 1,1.65 1,3.3 1,5 -1.875,5.625 -1.875,5.625 -5,6 -5.66,5.34 -6.32,4.68 -7,4 c 1.65,0 3.3,0 5,0 0,-0.66 0,-1.32 0,-2 0.66,0 1.32,0 2,0 C 0,1.34 0,0.68 0,0 Z"
       fill="#dcd9e6"
       transform="translate(759,703)"
       id="path184" />
    <path
       d="M 0,0 C 0,0.99 0,1.98 0,3 -2.64,3 -5.28,3 -8,3 -7,1 -7,1 -5.125,0.375 -3,0 -3,0 0,0 Z"
       fill="#d1cdde"
       transform="translate(773,628)"
       id="path185" />
    <path
       d="M 0,0 C 1.5,1.312 1.5,1.312 3,3 3,3.99 3,4.98 3,6 2.34,6 1.68,6 1,6 1,5.34 1,4.68 1,4 0.34,4 -0.32,4 -1,4 -1.33,4.66 -1.66,5.32 -2,6 -1.125,1.125 -1.125,1.125 0,0 Z"
       fill="#e0dde8"
       transform="translate(799,614)"
       id="path186" />
    <path
       d="M 0,0 C 1.65,0 3.3,0 5,0 4.688,1.938 4.688,1.938 4,4 3.01,4.33 2.02,4.66 1,5 0.67,3.35 0.34,1.7 0,0 Z"
       fill="#e0dde8"
       transform="translate(736,613)"
       id="path187" />
    <path
       d="M 0,0 C 0.33,0.66 0.66,1.32 1,2 1.99,2.33 2.98,2.66 4,3 4,3.33 4,3.66 4,4 3.526,4.155 3.526,4.155 1.125,4.938 -2,6 -2,6 -4,7 -2.796,4.506 -1.546,2.319 0,0 Z"
       fill="#d6d2e1"
       transform="translate(610,607)"
       id="path188" />
    <path
       d="M 0,0 C 0.34,0.072 0.34,0.072 2.062,0.438 5.363,1.069 8.671,1.543 12,2 12,2.33 12,2.66 12,3 8.37,3 4.74,3 1,3 0.67,2.01 0.34,1.02 0,0 Z"
       fill="#dbd7e5"
       transform="translate(637,571)"
       id="path189" />
    <path
       d="M 0,0 C 3.3,0.33 6.6,0.66 10,1 8.68,1.33 7.36,1.66 6,2 5.67,2.66 5.34,3.32 5,4 4.175,3.67 4.175,3.67 0,2 0,1.34 0,0.68 0,0 Z"
       fill="#dedae7"
       transform="translate(771,547)"
       id="path190" />
    <path
       d="M 0,0 C 0.825,0.33 0.825,0.33 5,2 1.565,4.29 0.015,4.178 -4,4 -4,3.34 -4,2.68 -4,2 -2.68,2 -1.36,2 0,2 0,1.34 0,0.68 0,0 Z"
       fill="#c2bdd3"
       transform="translate(769,519)"
       id="path191" />
    <path
       d="M 0,0 C 0.66,0 1.32,0 2,0 2,0.66 2,1.32 2,2 3.65,2 5.3,2 7,2 3.356,4.429 1.288,4.162 -3,4 -2.01,3.67 -1.02,3.34 0,3 0,2.01 0,1.02 0,0 Z"
       fill="#c0bad1"
       transform="translate(762,420)"
       id="path192" />
    <path
       d="M 0,0 C 0.33,0 0.66,0 1,0 1.188,2.375 1.188,2.375 1,5 -2,7 -2,7 -4.188,6.625 -4.786,6.419 -5.384,6.212 -6,6 -2.25,3 -2.25,3 0,3 0,2.01 0,1.02 0,0 Z"
       fill="#d5d1e1"
       transform="translate(808,355)"
       id="path193" />
    <path
       d="M 0,0 C 1.65,1.65 3.3,3.3 5,5 4.01,5.66 3.02,6.32 2,7 0.438,5.75 0.438,5.75 -1,4 -0.688,1.812 -0.688,1.812 0,0 Z"
       fill="#d4d0e0"
       transform="translate(795,332)"
       id="path194" />
    <path
       d="m 0,0 c -0.33,0.66 -0.66,1.32 -1,2 -4.299,0.909 -7.749,1.159 -12,0 0,-0.33 0,-0.66 0,-1 4.394,-0.857 8.526,-1.089 13,-1 z"
       fill="#d6d3e2"
       transform="translate(696,324)"
       id="path195" />
    <path
       d="M 0,0 C 1.98,0.66 3.96,1.32 6,2 6,3.32 6,4.64 6,6 4,5 2,4 0,3 0,2.01 0,1.02 0,0 Z"
       fill="#dcd8e5"
       transform="translate(708,833)"
       id="path196" />
    <path
       d="M 0,0 C 2,2 2,2 2,6 0.02,6 -1.96,6 -4,6 -3.526,5.567 -3.051,5.134 -2.562,4.688 -1,3 -1,3 0,0 Z"
       fill="#e8e6ee"
       transform="translate(488,786)"
       id="path197" />
    <path
       d="M 0,0 C 0.66,0 1.32,0 2,0 2,0.99 2,1.98 2,3 2.66,3.33 3.32,3.66 4,4 1.333,5.333 -0.167,4.671 -3,4 -3,3.34 -3,2.68 -3,2 -2.01,2 -1.02,2 0,2 0,1.34 0,0.68 0,0 Z"
       fill="#d6d2e1"
       transform="translate(471,785)"
       id="path198" />
    <path
       d="M 0,0 C 0.66,0 1.32,0 2,0 2.33,1.65 2.66,3.3 3,5 1.35,5 -0.3,5 -2,5 -2,4.34 -2,3.68 -2,3 -1.34,3 -0.68,3 0,3 0,2.01 0,1.02 0,0 Z"
       fill="#d8d4e3"
       transform="translate(684,686)"
       id="path199" />
    <path
       d="M 0,0 C 2.31,0 4.62,0 7,0 6.67,0.165 6.67,0.165 5,1 4.375,3.062 4.375,3.062 4,5 3.34,5 2.68,5 2,5 2,3.68 2,2.36 2,1 1.34,0.67 0.68,0.34 0,0 Z"
       fill="#d3cfdf"
       transform="translate(642,687)"
       id="path200" />
    <path
       d="M 0,0 C 0.99,0 1.98,0 3,0 2.67,1.65 2.34,3.3 2,5 1.01,5 0.02,5 -1,5 -1.33,4.01 -1.66,3.02 -2,2 -1.34,2 -0.68,2 0,2 0,1.34 0,0.68 0,0 Z"
       fill="#d2cedf"
       transform="translate(766,563)"
       id="path201" />
    <path
       d="m 0,0 c 0.763,0.062 1.526,0.124 2.312,0.188 0.33,0.659 0.661,1.32 1,2 -1.485,0.164 -1.485,0.164 -9,1 3,-3 3,-3 5.688,-3.188 z"
       fill="#cac5d8"
       transform="translate(506.6875,528.8125)"
       id="path202" />
    <path
       d="M 0,0 C -0.639,0.289 -1.279,0.577 -1.938,0.875 -4,2 -4,2 -5,4 -8,3 -8,3 -11,1 -7.266,0.121 -3.832,-0.089 0,0 Z"
       fill="#26223a"
       transform="translate(640,498)"
       id="path203" />
    <path
       d="M 0,0 C 0.66,0 1.32,0 2,0 1.67,1.32 1.34,2.64 1,4 -0.98,4.33 -2.96,4.66 -5,5 -4.67,4.01 -4.34,3.02 -4,2 -2.68,2 -1.36,2 0,2 0,1.34 0,0.68 0,0 Z"
       fill="#ddd9e6"
       transform="translate(781,404)"
       id="path204" />
  </g>
</svg>
